<?xml version="1.0" encoding="UTF-8"?>
<!DOCTYPE svg PUBLIC "-//W3C//DTD SVG 1.1//EN" "http://www.w3.org/Graphics/SVG/1.1/DTD/svg11.dtd">
<svg xmlns="http://www.w3.org/2000/svg" version="1.1" width="32px" height="32px" style="shape-rendering:geometricPrecision; text-rendering:geometricPrecision; image-rendering:optimizeQuality; fill-rule:evenodd; clip-rule:evenodd" xmlns:xlink="http://www.w3.org/1999/xlink">
<g><path style="opacity:0.975" fill="#97cbb3" d="M 9.5,-0.5 C 13.5,-0.5 17.5,-0.5 21.5,-0.5C 25.8333,1.83333 29.1667,5.16667 31.5,9.5C 31.5,13.5 31.5,17.5 31.5,21.5C 29.1667,25.8333 25.8333,29.1667 21.5,31.5C 17.5,31.5 13.5,31.5 9.5,31.5C 8.83333,30.8333 8.16667,30.1667 7.5,29.5C 11.0578,27.5537 14.7245,25.8871 18.5,24.5C 23.2684,21.1581 24.2684,16.9915 21.5,12C 19.8659,11.5065 18.1992,11.3398 16.5,11.5C 16.4802,9.85703 17.1468,8.5237 18.5,7.5C 18.1667,7.16667 17.8333,6.83333 17.5,6.5C 15.0736,6.6194 12.7402,6.95273 10.5,7.5C 6.72511,8.55495 3.05844,9.88828 -0.5,11.5C -0.5,10.8333 -0.5,10.1667 -0.5,9.5C 1.83333,5.16667 5.16667,1.83333 9.5,-0.5 Z"/></g>
<g><path style="opacity:0.992" fill="#85b09c" d="M 10.5,7.5 C 11.5,8.83333 12.5,10.1667 13.5,11.5C 8.82752,11.4882 6.99419,13.8215 8,18.5C 9.49274,23.8947 12.9927,25.8947 18.5,24.5C 14.7245,25.8871 11.0578,27.5537 7.5,29.5C 3.82707,27.8271 1.16041,25.1604 -0.5,21.5C -0.5,18.1667 -0.5,14.8333 -0.5,11.5C 3.05844,9.88828 6.72511,8.55495 10.5,7.5 Z"/></g>
<g><path style="opacity:1" fill="#317448" d="M 16.5,11.5 C 15.5,11.5 14.5,11.5 13.5,11.5C 12.5,10.1667 11.5,8.83333 10.5,7.5C 12.7402,6.95273 15.0736,6.6194 17.5,6.5C 17.8333,6.83333 18.1667,7.16667 18.5,7.5C 17.1468,8.5237 16.4802,9.85703 16.5,11.5 Z"/></g>
<g><path style="opacity:1" fill="#e8285c" d="M 13.5,11.5 C 14.5,11.5 15.5,11.5 16.5,11.5C 18.1992,11.3398 19.8659,11.5065 21.5,12C 24.2684,16.9915 23.2684,21.1581 18.5,24.5C 12.9927,25.8947 9.49274,23.8947 8,18.5C 6.99419,13.8215 8.82752,11.4882 13.5,11.5 Z"/></g>
</svg>
