<?xml version="1.0" encoding="UTF-8"?>
<!DOCTYPE svg PUBLIC "-//W3C//DTD SVG 1.1//EN" "http://www.w3.org/Graphics/SVG/1.1/DTD/svg11.dtd">
<svg xmlns="http://www.w3.org/2000/svg" version="1.1" width="32px" height="32px" style="shape-rendering:geometricPrecision; text-rendering:geometricPrecision; image-rendering:optimizeQuality; fill-rule:evenodd; clip-rule:evenodd" xmlns:xlink="http://www.w3.org/1999/xlink">
<g><path style="opacity:0.961" fill="#7fc3d6" d="M 9.5,-0.5 C 13.5,-0.5 17.5,-0.5 21.5,-0.5C 25.8333,1.83333 29.1667,5.16667 31.5,9.5C 31.5,13.5 31.5,17.5 31.5,21.5C 29.1667,25.8333 25.8333,29.1667 21.5,31.5C 17.5,31.5 13.5,31.5 9.5,31.5C 8.83333,30.8333 8.16667,30.1667 7.5,29.5C 11.3617,27.7381 15.0283,25.7381 18.5,23.5C 19.8333,23.5 20.5,22.8333 20.5,21.5C 24.9719,19.4849 25.6386,16.4849 22.5,12.5C 22.1667,12.5 21.8333,12.5 21.5,12.5C 20.488,10.124 18.6546,9.12398 16,9.5C 13.3454,9.12398 11.512,10.124 10.5,12.5C 9.88258,12.6107 9.38258,12.944 9,13.5C 7.67028,12.4178 6.17028,11.7512 4.5,11.5C 2.95047,12.4408 1.2838,13.1075 -0.5,13.5C -0.5,12.1667 -0.5,10.8333 -0.5,9.5C 1.83333,5.16667 5.16667,1.83333 9.5,-0.5 Z"/></g>
<g><path style="opacity:1" fill="#d93e69" d="M 21.5,12.5 C 17.8333,12.5 14.1667,12.5 10.5,12.5C 11.512,10.124 13.3454,9.12398 16,9.5C 18.6546,9.12398 20.488,10.124 21.5,12.5 Z"/></g>
<g><path style="opacity:0.957" fill="#6faabc" d="M 4.5,11.5 C 4.88944,16.3045 7.22277,19.6378 11.5,21.5C 13.2789,23.3435 15.6122,24.0102 18.5,23.5C 15.0283,25.7381 11.3617,27.7381 7.5,29.5C 3.82707,27.8271 1.16041,25.1604 -0.5,21.5C -0.5,18.8333 -0.5,16.1667 -0.5,13.5C 1.2838,13.1075 2.95047,12.4408 4.5,11.5 Z"/></g>
<g><path style="opacity:1" fill="#e9235c" d="M 4.5,11.5 C 6.17028,11.7512 7.67028,12.4178 9,13.5C 9.38258,12.944 9.88258,12.6107 10.5,12.5C 14.1667,12.5 17.8333,12.5 21.5,12.5C 21.8333,12.5 22.1667,12.5 22.5,12.5C 25.6386,16.4849 24.9719,19.4849 20.5,21.5C 17.5,21.5 14.5,21.5 11.5,21.5C 7.22277,19.6378 4.88944,16.3045 4.5,11.5 Z"/></g>
<g><path style="opacity:1" fill="#c8537f" d="M 22.5,12.5 C 24.1534,11.2006 25.6534,11.5339 27,13.5C 26.5403,18.6197 25.8736,18.6197 25,13.5C 24.3292,12.7476 23.4959,12.4142 22.5,12.5 Z"/></g>
<g><path style="opacity:1" fill="#753043" d="M 11.5,21.5 C 14.5,21.5 17.5,21.5 20.5,21.5C 20.5,22.8333 19.8333,23.5 18.5,23.5C 15.6122,24.0102 13.2789,23.3435 11.5,21.5 Z"/></g>
</svg>
