<?xml version="1.0" encoding="UTF-8"?>
<!DOCTYPE svg PUBLIC "-//W3C//DTD SVG 1.1//EN" "http://www.w3.org/Graphics/SVG/1.1/DTD/svg11.dtd">
<svg xmlns="http://www.w3.org/2000/svg" version="1.1" width="32px" height="32px" style="shape-rendering:geometricPrecision; text-rendering:geometricPrecision; image-rendering:optimizeQuality; fill-rule:evenodd; clip-rule:evenodd" xmlns:xlink="http://www.w3.org/1999/xlink">
<g><path style="opacity:0.954" fill="#fcc75a" d="M 9.5,-0.5 C 13.5,-0.5 17.5,-0.5 21.5,-0.5C 25.8333,1.83333 29.1667,5.16667 31.5,9.5C 31.5,13.5 31.5,17.5 31.5,21.5C 29.1667,25.8333 25.8333,29.1667 21.5,31.5C 17.5,31.5 13.5,31.5 9.5,31.5C 8.83333,30.8333 8.16667,30.1667 7.5,29.5C 10.7649,27.9679 14.0982,26.6346 17.5,25.5C 20.1391,24.2942 20.9724,22.2942 20,19.5C 18.6439,18.6198 17.1439,18.2865 15.5,18.5C 15.5,18.1667 15.5,17.8333 15.5,17.5C 15.1936,14.6146 15.5269,11.9479 16.5,9.5C 18.808,10.7143 21.1413,10.7143 23.5,9.5C 21.8255,5.75078 19.1589,4.75078 15.5,6.5C 10.0842,8.30491 4.75091,10.3049 -0.5,12.5C -0.5,11.5 -0.5,10.5 -0.5,9.5C 1.83333,5.16667 5.16667,1.83333 9.5,-0.5 Z"/></g>
<g><path style="opacity:1" fill="#2c6733" d="M 16.5,9.5 C 16.1667,8.83333 15.8333,8.16667 15.5,7.5C 15.5,7.16667 15.5,6.83333 15.5,6.5C 19.1589,4.75078 21.8255,5.75078 23.5,9.5C 21.1413,10.7143 18.808,10.7143 16.5,9.5 Z"/></g>
<g><path style="opacity:0.963" fill="#deaf4f" d="M 15.5,6.5 C 15.5,6.83333 15.5,7.16667 15.5,7.5C 12.7436,10.0177 10.7436,13.0177 9.5,16.5C 8.5041,16.4142 7.67076,16.7476 7,17.5C 5.67237,22.3376 7.5057,24.671 12.5,24.5C 14.0418,25.3007 15.7085,25.634 17.5,25.5C 14.0982,26.6346 10.7649,27.9679 7.5,29.5C 3.82707,27.8271 1.16041,25.1604 -0.5,21.5C -0.5,18.5 -0.5,15.5 -0.5,12.5C 4.75091,10.3049 10.0842,8.30491 15.5,6.5 Z"/></g>
<g><path style="opacity:1" fill="#bb9142" d="M 15.5,7.5 C 15.8333,8.16667 16.1667,8.83333 16.5,9.5C 15.5269,11.9479 15.1936,14.6146 15.5,17.5C 13.3729,16.8506 11.3729,16.5173 9.5,16.5C 10.7436,13.0177 12.7436,10.0177 15.5,7.5 Z"/></g>
<g><path style="opacity:1" fill="#bc2f29" d="M 9.5,16.5 C 11.3729,16.5173 13.3729,16.8506 15.5,17.5C 15.5,17.8333 15.5,18.1667 15.5,18.5C 11.5564,18.8844 10.5564,20.8844 12.5,24.5C 7.5057,24.671 5.67237,22.3376 7,17.5C 7.67076,16.7476 8.5041,16.4142 9.5,16.5 Z"/></g>
<g><path style="opacity:1" fill="#ec2557" d="M 15.5,18.5 C 17.1439,18.2865 18.6439,18.6198 20,19.5C 20.9724,22.2942 20.1391,24.2942 17.5,25.5C 15.7085,25.634 14.0418,25.3007 12.5,24.5C 10.5564,20.8844 11.5564,18.8844 15.5,18.5 Z"/></g>
</svg>
