<?xml version="1.0" encoding="UTF-8"?>
<!DOCTYPE svg PUBLIC "-//W3C//DTD SVG 1.1//EN" "http://www.w3.org/Graphics/SVG/1.1/DTD/svg11.dtd">
<svg xmlns="http://www.w3.org/2000/svg" version="1.1" width="32px" height="32px" style="shape-rendering:geometricPrecision; text-rendering:geometricPrecision; image-rendering:optimizeQuality; fill-rule:evenodd; clip-rule:evenodd" xmlns:xlink="http://www.w3.org/1999/xlink">
<g><path style="opacity:0.961" fill="#80c4d6" d="M 9.5,-0.5 C 13.5,-0.5 17.5,-0.5 21.5,-0.5C 25.8333,1.83333 29.1667,5.16667 31.5,9.5C 31.5,13.5 31.5,17.5 31.5,21.5C 29.1667,25.8333 25.8333,29.1667 21.5,31.5C 17.5,31.5 13.5,31.5 9.5,31.5C 9.5,30.8333 9.16667,30.5 8.5,30.5C 12.9563,27.7895 17.6229,25.4561 22.5,23.5C 23.2389,23.631 23.9056,23.4643 24.5,23C 22.8934,21.951 22.2267,20.451 22.5,18.5C 23.0134,16.7105 23.5134,15.0438 24,13.5C 23.586,13.0426 23.086,12.7093 22.5,12.5C 21.7348,13.6119 20.7348,14.2786 19.5,14.5C 17.5648,13.8505 15.5648,13.5172 13.5,13.5C 13.6567,12.1266 13.49,10.7932 13,9.5C 12.6924,10.3081 12.1924,10.9747 11.5,11.5C 10.7189,10.2713 10.2189,8.93801 10,7.5C 6.67626,9.32961 3.17626,10.6629 -0.5,11.5C -0.5,10.8333 -0.5,10.1667 -0.5,9.5C 1.83333,5.16667 5.16667,1.83333 9.5,-0.5 Z"/></g>
<g><path style="opacity:0.966" fill="#6fabbc" d="M 13.5,13.5 C 10.7374,13.7438 8.57073,15.0771 7,17.5C 6.85983,19.5213 6.69317,21.3547 6.5,23C 11.8229,23.4994 17.1563,23.666 22.5,23.5C 17.6229,25.4561 12.9563,27.7895 8.5,30.5C 4.4722,28.4722 1.4722,25.4722 -0.5,21.5C -0.5,18.1667 -0.5,14.8333 -0.5,11.5C 3.17626,10.6629 6.67626,9.32961 10,7.5C 10.2189,8.93801 10.7189,10.2713 11.5,11.5C 12.1924,10.9747 12.6924,10.3081 13,9.5C 13.49,10.7932 13.6567,12.1266 13.5,13.5 Z"/></g>
<g><path style="opacity:1" fill="#faba60" d="M 13.5,13.5 C 15.5648,13.5172 17.5648,13.8505 19.5,14.5C 16.8386,16.5138 16.8386,18.5138 19.5,20.5C 20.5178,19.8075 21.5178,19.1408 22.5,18.5C 22.2267,20.451 22.8934,21.951 24.5,23C 23.9056,23.4643 23.2389,23.631 22.5,23.5C 17.1563,23.666 11.8229,23.4994 6.5,23C 6.69317,21.3547 6.85983,19.5213 7,17.5C 8.57073,15.0771 10.7374,13.7438 13.5,13.5 Z"/></g>
<g><path style="opacity:1" fill="#ef756b" d="M 22.5,18.5 C 21.5178,19.1408 20.5178,19.8075 19.5,20.5C 16.8386,18.5138 16.8386,16.5138 19.5,14.5C 20.7348,14.2786 21.7348,13.6119 22.5,12.5C 23.086,12.7093 23.586,13.0426 24,13.5C 23.5134,15.0438 23.0134,16.7105 22.5,18.5 Z"/></g>
</svg>
