<?xml version="1.0" encoding="UTF-8"?>
<!DOCTYPE svg PUBLIC "-//W3C//DTD SVG 1.1//EN" "http://www.w3.org/Graphics/SVG/1.1/DTD/svg11.dtd">
<svg xmlns="http://www.w3.org/2000/svg" version="1.1" width="32px" height="32px" style="shape-rendering:geometricPrecision; text-rendering:geometricPrecision; image-rendering:optimizeQuality; fill-rule:evenodd; clip-rule:evenodd" xmlns:xlink="http://www.w3.org/1999/xlink">
<g><path style="opacity:0.828" fill="#5dc3c4" d="M 11.5,-0.5 C 14.1667,-0.5 16.8333,-0.5 19.5,-0.5C 25.5658,1.90014 29.5658,6.23347 31.5,12.5C 31.5,14.5 31.5,16.5 31.5,18.5C 29.5658,24.7665 25.5658,29.0999 19.5,31.5C 16.8333,31.5 14.1667,31.5 11.5,31.5C 5.43416,29.0999 1.43416,24.7665 -0.5,18.5C -0.5,16.5 -0.5,14.5 -0.5,12.5C 1.43416,6.23347 5.43416,1.90014 11.5,-0.5 Z"/></g>
<g><path style="opacity:1" fill="#4a6866" d="M 16.5,7.5 C 15.8333,7.5 15.1667,7.5 14.5,7.5C 15.1667,4.83333 15.8333,4.83333 16.5,7.5 Z"/></g>
<g><path style="opacity:1" fill="#dde0e0" d="M 14.5,7.5 C 15.1667,7.5 15.8333,7.5 16.5,7.5C 18.4832,7.15684 19.8166,7.82351 20.5,9.5C 20.5,9.83333 20.5,10.1667 20.5,10.5C 19.9115,13.6104 19.2448,16.6104 18.5,19.5C 17.5206,16.3752 17.1872,13.0419 17.5,9.5C 15.8333,9.5 14.1667,9.5 12.5,9.5C 13.239,13.0151 13.239,16.3485 12.5,19.5C 11.1062,16.4521 9.77289,13.2854 8.5,10C 9.97827,7.96141 11.9783,7.12807 14.5,7.5 Z"/></g>
<g><path style="opacity:1" fill="#2f5a58" d="M 20.5,10.5 C 20.5,10.1667 20.5,9.83333 20.5,9.5C 22.9477,9.08467 24.2811,10.0847 24.5,12.5C 24.2547,14.6633 23.2547,16.33 21.5,17.5C 21.1667,17.1667 20.8333,16.8333 20.5,16.5C 21.8848,15.4495 22.8848,14.1161 23.5,12.5C 22.9953,11.0815 21.9953,10.4148 20.5,10.5 Z"/></g>
<g><path style="opacity:1" fill="#c9cccc" d="M 18.5,19.5 C 19.9395,21.588 20.6061,23.9214 20.5,26.5C 17.1667,26.5 13.8333,26.5 10.5,26.5C 10.3939,23.9214 11.0605,21.588 12.5,19.5C 13.239,16.3485 13.239,13.0151 12.5,9.5C 14.1667,9.5 15.8333,9.5 17.5,9.5C 17.1872,13.0419 17.5206,16.3752 18.5,19.5 Z"/></g>
</svg>
