<?xml version="1.0" encoding="UTF-8"?>
<!DOCTYPE svg PUBLIC "-//W3C//DTD SVG 1.1//EN" "http://www.w3.org/Graphics/SVG/1.1/DTD/svg11.dtd">
<svg xmlns="http://www.w3.org/2000/svg" version="1.1" width="32px" height="32px" style="shape-rendering:geometricPrecision; text-rendering:geometricPrecision; image-rendering:optimizeQuality; fill-rule:evenodd; clip-rule:evenodd" xmlns:xlink="http://www.w3.org/1999/xlink">
<g><path style="opacity:0.957" fill="#fec95b" d="M 9.5,-0.5 C 13.5,-0.5 17.5,-0.5 21.5,-0.5C 25.8333,1.83333 29.1667,5.16667 31.5,9.5C 31.5,13.5 31.5,17.5 31.5,21.5C 29.1667,25.8333 25.8333,29.1667 21.5,31.5C 17.5,31.5 13.5,31.5 9.5,31.5C 7.65084,30.407 5.98417,29.0737 4.5,27.5C 8.12671,26.6792 11.46,25.3459 14.5,23.5C 19.5121,21.7751 21.8454,18.1084 21.5,12.5C 20.209,12.7373 19.209,12.404 18.5,11.5C 17.8919,9.0095 16.2252,7.67617 13.5,7.5C 8.86092,9.16253 4.19425,10.8292 -0.5,12.5C -0.5,11.5 -0.5,10.5 -0.5,9.5C 1.83333,5.16667 5.16667,1.83333 9.5,-0.5 Z"/></g>
<g><path style="opacity:0.969" fill="#dfb256" d="M 18.5,11.5 C 15.5,11.5 12.5,11.5 9.5,11.5C 9.5,15.5 9.5,19.5 9.5,23.5C 11.1667,23.5 12.8333,23.5 14.5,23.5C 11.46,25.3459 8.12671,26.6792 4.5,27.5C 2.35665,25.8693 0.689986,23.8693 -0.5,21.5C -0.5,18.5 -0.5,15.5 -0.5,12.5C 4.19425,10.8292 8.86092,9.16253 13.5,7.5C 16.2252,7.67617 17.8919,9.0095 18.5,11.5 Z"/></g>
<g><path style="opacity:1" fill="#ea5856" d="M 18.5,11.5 C 19.209,12.404 20.209,12.7373 21.5,12.5C 21.8454,18.1084 19.5121,21.7751 14.5,23.5C 12.8333,23.5 11.1667,23.5 9.5,23.5C 9.5,19.5 9.5,15.5 9.5,11.5C 12.5,11.5 15.5,11.5 18.5,11.5 Z"/></g>
<g><path style="opacity:1" fill="#e27a52" d="M 15.5,13.5 C 16.7479,14.3339 17.4146,15.6672 17.5,17.5C 17.1667,18.8333 16.8333,20.1667 16.5,21.5C 15.52,18.9135 15.1866,16.2469 15.5,13.5 Z"/></g>
<g><path style="opacity:1" fill="#dfa450" d="M 18.5,14.5 C 19.3764,14.3691 20.0431,14.7025 20.5,15.5C 18.9929,19.3548 18.3262,19.0214 18.5,14.5 Z"/></g>
</svg>
