<?xml version="1.0" encoding="UTF-8"?>
<!DOCTYPE svg PUBLIC "-//W3C//DTD SVG 1.1//EN" "http://www.w3.org/Graphics/SVG/1.1/DTD/svg11.dtd">
<svg xmlns="http://www.w3.org/2000/svg" version="1.1" width="32px" height="32px" style="shape-rendering:geometricPrecision; text-rendering:geometricPrecision; image-rendering:optimizeQuality; fill-rule:evenodd; clip-rule:evenodd" xmlns:xlink="http://www.w3.org/1999/xlink">
<g><path style="opacity:0.975" fill="#28cfa8" d="M 9.5,-0.5 C 13.5,-0.5 17.5,-0.5 21.5,-0.5C 23.3492,0.593015 25.0158,1.92635 26.5,3.5C 23.8333,6.5 21.1667,9.5 18.5,12.5C 16.2267,10.9611 14.2267,11.2945 12.5,13.5C 13.0253,14.1924 13.6919,14.6924 14.5,15C 11.3876,15.8505 11.0542,17.0172 13.5,18.5C 12.6431,19.4252 11.6431,20.0919 10.5,20.5C 8.1918,22.4707 5.85847,24.4707 3.5,26.5C 1.92635,25.0158 0.593015,23.3492 -0.5,21.5C -0.5,17.5 -0.5,13.5 -0.5,9.5C 1.83333,5.16667 5.16667,1.83333 9.5,-0.5 Z"/></g>
<g><path style="opacity:0.967" fill="#23bc98" d="M 26.5,3.5 C 28.6433,5.13072 30.31,7.13072 31.5,9.5C 31.5,13.5 31.5,17.5 31.5,21.5C 29.1667,25.8333 25.8333,29.1667 21.5,31.5C 17.5,31.5 13.5,31.5 9.5,31.5C 7.13072,30.31 5.13072,28.6433 3.5,26.5C 5.85847,24.4707 8.1918,22.4707 10.5,20.5C 11.347,21.9663 12.6803,22.7996 14.5,23C 12.8333,23.3333 11.1667,23.6667 9.5,24C 13.1667,24.6667 16.8333,24.6667 20.5,24C 19.1667,23.6667 17.8333,23.3333 16.5,23C 21.1926,22.1836 21.5259,20.6836 17.5,18.5C 19.9458,17.0172 19.6124,15.8505 16.5,15C 17.756,14.5831 18.4226,13.7498 18.5,12.5C 21.1667,9.5 23.8333,6.5 26.5,3.5 Z"/></g>
<g><path style="opacity:1" fill="#ddeb19" d="M 14.5,7.5 C 16.337,7.63945 16.6704,8.30612 15.5,9.5C 14.7025,9.04311 14.3691,8.37644 14.5,7.5 Z"/></g>
<g><path style="opacity:1" fill="#037142" d="M 18.5,12.5 C 18.4226,13.7498 17.756,14.5831 16.5,15C 19.6124,15.8505 19.9458,17.0172 17.5,18.5C 21.5259,20.6836 21.1926,22.1836 16.5,23C 17.8333,23.3333 19.1667,23.6667 20.5,24C 16.8333,24.6667 13.1667,24.6667 9.5,24C 11.1667,23.6667 12.8333,23.3333 14.5,23C 12.6803,22.7996 11.347,21.9663 10.5,20.5C 11.6431,20.0919 12.6431,19.4252 13.5,18.5C 11.0542,17.0172 11.3876,15.8505 14.5,15C 13.6919,14.6924 13.0253,14.1924 12.5,13.5C 14.2267,11.2945 16.2267,10.9611 18.5,12.5 Z"/></g>
</svg>
