<?xml version="1.0" encoding="UTF-8"?>
<!DOCTYPE svg PUBLIC "-//W3C//DTD SVG 1.1//EN" "http://www.w3.org/Graphics/SVG/1.1/DTD/svg11.dtd">
<svg xmlns="http://www.w3.org/2000/svg" version="1.1" width="32px" height="32px" style="shape-rendering:geometricPrecision; text-rendering:geometricPrecision; image-rendering:optimizeQuality; fill-rule:evenodd; clip-rule:evenodd" xmlns:xlink="http://www.w3.org/1999/xlink">
<g><path style="opacity:0.963" fill="#7ec5d8" d="M 9.5,-0.5 C 13.5,-0.5 17.5,-0.5 21.5,-0.5C 25.8333,1.83333 29.1667,5.16667 31.5,9.5C 31.5,13.5 31.5,17.5 31.5,21.5C 29.1667,25.8333 25.8333,29.1667 21.5,31.5C 17.5,31.5 13.5,31.5 9.5,31.5C 8.16667,30.5 6.83333,29.5 5.5,28.5C 9.66153,26.678 13.6615,24.678 17.5,22.5C 25.6857,18.6099 26.3524,13.7765 19.5,8C 16.408,7.26423 13.408,7.43089 10.5,8.5C 6.82845,9.83481 3.16179,11.1681 -0.5,12.5C -0.5,11.5 -0.5,10.5 -0.5,9.5C 1.83333,5.16667 5.16667,1.83333 9.5,-0.5 Z"/></g>
<g><path style="opacity:1" fill="#f9ebdf" d="M 17.5,22.5 C 11.0499,24.7352 7.38328,22.4019 6.5,15.5C 7.82317,13.1729 9.1565,10.8396 10.5,8.5C 13.408,7.43089 16.408,7.26423 19.5,8C 26.3524,13.7765 25.6857,18.6099 17.5,22.5 Z"/></g>
<g><path style="opacity:0.96" fill="#71adbe" d="M 10.5,8.5 C 9.1565,10.8396 7.82317,13.1729 6.5,15.5C 7.38328,22.4019 11.0499,24.7352 17.5,22.5C 13.6615,24.678 9.66153,26.678 5.5,28.5C 2.78913,26.7248 0.789131,24.3915 -0.5,21.5C -0.5,18.5 -0.5,15.5 -0.5,12.5C 3.16179,11.1681 6.82845,9.83481 10.5,8.5 Z"/></g>
<g><path style="opacity:1" fill="#ffd073" d="M 13.5,11.5 C 19.4877,11.664 20.821,14.164 17.5,19C 11.4034,19.1475 10.0701,16.6475 13.5,11.5 Z"/></g>
</svg>
