<?xml version="1.0" encoding="UTF-8"?>
<!DOCTYPE svg PUBLIC "-//W3C//DTD SVG 1.1//EN" "http://www.w3.org/Graphics/SVG/1.1/DTD/svg11.dtd">
<svg xmlns="http://www.w3.org/2000/svg" version="1.1" width="32px" height="32px" style="shape-rendering:geometricPrecision; text-rendering:geometricPrecision; image-rendering:optimizeQuality; fill-rule:evenodd; clip-rule:evenodd" xmlns:xlink="http://www.w3.org/1999/xlink">
<g><path style="opacity:0.961" fill="#7ec5d8" d="M 9.5,-0.5 C 13.5,-0.5 17.5,-0.5 21.5,-0.5C 25.8333,1.83333 29.1667,5.16667 31.5,9.5C 31.5,13.5 31.5,17.5 31.5,21.5C 29.1667,25.8333 25.8333,29.1667 21.5,31.5C 17.5,31.5 13.5,31.5 9.5,31.5C 8.83333,30.8333 8.16667,30.1667 7.5,29.5C 11.7668,27.8666 15.7668,25.8666 19.5,23.5C 21.153,23.3404 22.4863,22.6737 23.5,21.5C 24.5366,19.2625 24.7033,16.9291 24,14.5C 23.5776,12.5743 22.4109,11.5743 20.5,11.5C 18.8927,8.28463 16.2261,6.95129 12.5,7.5C 8.29092,9.77123 3.95759,11.7712 -0.5,13.5C -0.5,12.1667 -0.5,10.8333 -0.5,9.5C 1.83333,5.16667 5.16667,1.83333 9.5,-0.5 Z"/></g>
<g><path style="opacity:1" fill="#bdd1d1" d="M 12.5,7.5 C 16.2261,6.95129 18.8927,8.28463 20.5,11.5C 19.8333,11.5 19.5,11.8333 19.5,12.5C 17.7973,11.3398 17.1307,12.0065 17.5,14.5C 16.8485,13.9094 16.1818,13.2427 15.5,12.5C 14.8182,13.2427 14.1515,13.9094 13.5,14.5C 13.8693,12.0065 13.2027,11.3398 11.5,12.5C 11.5,11.8333 11.1667,11.5 10.5,11.5C 11.6005,10.3951 12.2671,9.06181 12.5,7.5 Z"/></g>
<g><path style="opacity:0.958" fill="#71aebe" d="M 12.5,7.5 C 12.2671,9.06181 11.6005,10.3951 10.5,11.5C 8.98261,11.5106 7.81595,12.1772 7,13.5C 6.33333,15.8333 6.33333,18.1667 7,20.5C 7.38258,21.056 7.88258,21.3893 8.5,21.5C 8.97306,22.9063 9.97306,23.573 11.5,23.5C 12.4916,23.6716 13.1583,23.3382 13.5,22.5C 14.8333,23.8333 16.1667,23.8333 17.5,22.5C 17.8417,23.3382 18.5084,23.6716 19.5,23.5C 15.7668,25.8666 11.7668,27.8666 7.5,29.5C 3.82707,27.8271 1.16041,25.1604 -0.5,21.5C -0.5,18.8333 -0.5,16.1667 -0.5,13.5C 3.95759,11.7712 8.29092,9.77123 12.5,7.5 Z"/></g>
<g><path style="opacity:1" fill="#f5e9dd" d="M 10.5,11.5 C 11.1667,11.5 11.5,11.8333 11.5,12.5C 10.5416,12.9528 9.7083,13.6195 9,14.5C 8.50335,16.8098 8.33669,19.1432 8.5,21.5C 7.88258,21.3893 7.38258,21.056 7,20.5C 6.33333,18.1667 6.33333,15.8333 7,13.5C 7.81595,12.1772 8.98261,11.5106 10.5,11.5 Z"/></g>
<g><path style="opacity:1" fill="#f9ebde" d="M 13.5,14.5 C 10.8333,17.1667 10.8333,19.8333 13.5,22.5C 13.1583,23.3382 12.4916,23.6716 11.5,23.5C 8.93313,19.8708 8.93313,16.2042 11.5,12.5C 13.2027,11.3398 13.8693,12.0065 13.5,14.5 Z"/></g>
<g><path style="opacity:1" fill="#fbecdf" d="M 17.5,14.5 C 17.5,17.1667 17.5,19.8333 17.5,22.5C 16.1667,23.8333 14.8333,23.8333 13.5,22.5C 13.5,19.8333 13.5,17.1667 13.5,14.5C 14.1515,13.9094 14.8182,13.2427 15.5,12.5C 16.1818,13.2427 16.8485,13.9094 17.5,14.5 Z"/></g>
<g><path style="opacity:1" fill="#fbecde" d="M 19.5,12.5 C 21.2881,15.2281 21.7881,18.2281 21,21.5C 20.1072,22.7112 19.2739,22.7112 18.5,21.5C 19.9134,18.8432 19.58,16.5099 17.5,14.5C 17.1307,12.0065 17.7973,11.3398 19.5,12.5 Z"/></g>
<g><path style="opacity:1" fill="#f7eade" d="M 19.5,12.5 C 19.5,11.8333 19.8333,11.5 20.5,11.5C 22.4109,11.5743 23.5776,12.5743 24,14.5C 24.7033,16.9291 24.5366,19.2625 23.5,21.5C 22.6862,19.369 22.1862,17.0356 22,14.5C 21.2917,13.6195 20.4584,12.9528 19.5,12.5 Z"/></g>
<g><path style="opacity:1" fill="#aec9cc" d="M 11.5,12.5 C 8.93313,16.2042 8.93313,19.8708 11.5,23.5C 9.97306,23.573 8.97306,22.9063 8.5,21.5C 8.33669,19.1432 8.50335,16.8098 9,14.5C 9.7083,13.6195 10.5416,12.9528 11.5,12.5 Z"/></g>
<g><path style="opacity:1" fill="#b6cdcf" d="M 19.5,12.5 C 20.4584,12.9528 21.2917,13.6195 22,14.5C 22.1862,17.0356 22.6862,19.369 23.5,21.5C 22.4863,22.6737 21.153,23.3404 19.5,23.5C 18.5084,23.6716 17.8417,23.3382 17.5,22.5C 17.5,19.8333 17.5,17.1667 17.5,14.5C 19.58,16.5099 19.9134,18.8432 18.5,21.5C 19.2739,22.7112 20.1072,22.7112 21,21.5C 21.7881,18.2281 21.2881,15.2281 19.5,12.5 Z"/></g>
<g><path style="opacity:1" fill="#c1d1d0" d="M 13.5,14.5 C 13.5,17.1667 13.5,19.8333 13.5,22.5C 10.8333,19.8333 10.8333,17.1667 13.5,14.5 Z"/></g>
</svg>
