<?xml version="1.0" encoding="UTF-8"?>
<!DOCTYPE svg PUBLIC "-//W3C//DTD SVG 1.1//EN" "http://www.w3.org/Graphics/SVG/1.1/DTD/svg11.dtd">
<svg xmlns="http://www.w3.org/2000/svg" version="1.1" width="32px" height="32px" style="shape-rendering:geometricPrecision; text-rendering:geometricPrecision; image-rendering:optimizeQuality; fill-rule:evenodd; clip-rule:evenodd" xmlns:xlink="http://www.w3.org/1999/xlink">
<g><path style="opacity:0.975" fill="#f16b67" d="M 9.5,-0.5 C 13.5,-0.5 17.5,-0.5 21.5,-0.5C 25.8333,1.83333 29.1667,5.16667 31.5,9.5C 31.5,13.5 31.5,17.5 31.5,21.5C 29.1667,25.8333 25.8333,29.1667 21.5,31.5C 17.5,31.5 13.5,31.5 9.5,31.5C 8.70951,30.5987 7.70951,29.9321 6.5,29.5C 8.79384,27.6117 11.4605,26.2784 14.5,25.5C 16.3873,24.3437 17.7206,22.677 18.5,20.5C 19.1667,20.5 19.5,20.1667 19.5,19.5C 20.4013,18.7095 21.0679,17.7095 21.5,16.5C 20.695,14.7872 19.695,13.1206 18.5,11.5C 17.2624,15.3107 16.5958,15.3107 16.5,11.5C 16.3832,9.5165 17.0499,7.84983 18.5,6.5C 18.1667,6.16667 17.8333,5.83333 17.5,5.5C 16.8333,6.16667 16.1667,6.83333 15.5,7.5C 14.3777,6.36977 13.0443,5.70311 11.5,5.5C 7.83821,6.83185 4.17155,8.16519 0.5,9.5C 2.11192,4.88948 5.11192,1.55615 9.5,-0.5 Z"/></g>
<g><path style="opacity:0.994" fill="#d4605a" d="M 11.5,5.5 C 11.7565,7.77613 13.0898,8.9428 15.5,9C 14.7476,9.67076 14.4142,10.5041 14.5,11.5C 14.6713,14.7973 14.0046,15.1306 12.5,12.5C 8.71806,14.7034 8.55139,17.0368 12,19.5C 13.0111,18.9444 13.8444,18.2778 14.5,17.5C 16.6074,16.5318 18.9407,16.1984 21.5,16.5C 21.0679,17.7095 20.4013,18.7095 19.5,19.5C 19.5,20.1667 19.1667,20.5 18.5,20.5C 16.396,20.2011 14.396,20.5344 12.5,21.5C 13.8532,22.5237 14.5198,23.857 14.5,25.5C 11.4605,26.2784 8.79384,27.6117 6.5,29.5C 3.42088,27.4251 1.08754,24.7584 -0.5,21.5C -0.5,17.5 -0.5,13.5 -0.5,9.5C -0.166667,9.5 0.166667,9.5 0.5,9.5C 4.17155,8.16519 7.83821,6.83185 11.5,5.5 Z"/></g>
<g><path style="opacity:1" fill="#5e6440" d="M 11.5,5.5 C 13.0443,5.70311 14.3777,6.36977 15.5,7.5C 16.1667,6.83333 16.8333,6.16667 17.5,5.5C 17.8333,5.83333 18.1667,6.16667 18.5,6.5C 17.0499,7.84983 16.3832,9.5165 16.5,11.5C 15.8333,11.5 15.1667,11.5 14.5,11.5C 14.4142,10.5041 14.7476,9.67076 15.5,9C 13.0898,8.9428 11.7565,7.77613 11.5,5.5 Z"/></g>
<g><path style="opacity:1" fill="#efa15b" d="M 14.5,11.5 C 15.1667,11.5 15.8333,11.5 16.5,11.5C 16.5958,15.3107 17.2624,15.3107 18.5,11.5C 19.695,13.1206 20.695,14.7872 21.5,16.5C 18.9407,16.1984 16.6074,16.5318 14.5,17.5C 13.8444,18.2778 13.0111,18.9444 12,19.5C 8.55139,17.0368 8.71806,14.7034 12.5,12.5C 14.0046,15.1306 14.6713,14.7973 14.5,11.5 Z"/></g>
<g><path style="opacity:1" fill="#fdc65b" d="M 14.5,17.5 C 16.337,17.6395 16.6704,18.3061 15.5,19.5C 14.7025,19.0431 14.3691,18.3764 14.5,17.5 Z"/></g>
<g><path style="opacity:1" fill="#fcc55b" d="M 19.5,19.5 C 17.663,19.3605 17.3296,18.6939 18.5,17.5C 19.2975,17.9569 19.6309,18.6236 19.5,19.5 Z"/></g>
<g><path style="opacity:1" fill="#f1a45c" d="M 18.5,20.5 C 17.7206,22.677 16.3873,24.3437 14.5,25.5C 14.5198,23.857 13.8532,22.5237 12.5,21.5C 14.396,20.5344 16.396,20.2011 18.5,20.5 Z"/></g>
</svg>
