<?xml version="1.0" encoding="UTF-8"?>
<!DOCTYPE svg PUBLIC "-//W3C//DTD SVG 1.1//EN" "http://www.w3.org/Graphics/SVG/1.1/DTD/svg11.dtd">
<svg xmlns="http://www.w3.org/2000/svg" version="1.1" width="32px" height="32px" style="shape-rendering:geometricPrecision; text-rendering:geometricPrecision; image-rendering:optimizeQuality; fill-rule:evenodd; clip-rule:evenodd" xmlns:xlink="http://www.w3.org/1999/xlink">
<g><path style="opacity:0.974" fill="#27d0a9" d="M 9.5,-0.5 C 13.5,-0.5 17.5,-0.5 21.5,-0.5C 23.3492,0.593015 25.0158,1.92635 26.5,3.5C 24.3044,7.04736 21.3044,9.3807 17.5,10.5C 16.5768,9.69708 15.5768,9.53042 14.5,10C 12.4522,11.9565 10.7856,14.1231 9.5,16.5C 9.62502,21.0549 7.62502,24.3882 3.5,26.5C 1.92635,25.0158 0.593015,23.3492 -0.5,21.5C -0.5,17.5 -0.5,13.5 -0.5,9.5C 1.83333,5.16667 5.16667,1.83333 9.5,-0.5 Z"/></g>
<g><path style="opacity:0.969" fill="#23bc98" d="M 26.5,3.5 C 28.6433,5.13072 30.31,7.13072 31.5,9.5C 31.5,13.5 31.5,17.5 31.5,21.5C 29.1667,25.8333 25.8333,29.1667 21.5,31.5C 17.5,31.5 13.5,31.5 9.5,31.5C 7.13072,30.31 5.13072,28.6433 3.5,26.5C 7.62502,24.3882 9.62502,21.0549 9.5,16.5C 9.9724,18.5313 10.9724,20.1979 12.5,21.5C 13.404,20.791 13.7373,19.791 13.5,18.5C 14.8333,18.5 16.1667,18.5 17.5,18.5C 17.2627,19.791 17.596,20.791 18.5,21.5C 20.229,20.0473 21.229,18.0473 21.5,15.5C 20.6906,13.9291 20.3573,12.2624 20.5,10.5C 19.5,10.5 18.5,10.5 17.5,10.5C 21.3044,9.3807 24.3044,7.04736 26.5,3.5 Z"/></g>
<g><path style="opacity:1" fill="#272b64" d="M 17.5,10.5 C 18.5,10.5 19.5,10.5 20.5,10.5C 20.3573,12.2624 20.6906,13.9291 21.5,15.5C 21.229,18.0473 20.229,20.0473 18.5,21.5C 18.5,20.1667 18.5,18.8333 18.5,17.5C 16.5,17.5 14.5,17.5 12.5,17.5C 12.5,18.8333 12.5,20.1667 12.5,21.5C 10.9724,20.1979 9.9724,18.5313 9.5,16.5C 10.7856,14.1231 12.4522,11.9565 14.5,10C 15.5768,9.53042 16.5768,9.69708 17.5,10.5 Z"/></g>
<g><path style="opacity:1" fill="#256d7c" d="M 18.5,21.5 C 17.596,20.791 17.2627,19.791 17.5,18.5C 16.1667,18.5 14.8333,18.5 13.5,18.5C 13.7373,19.791 13.404,20.791 12.5,21.5C 12.5,20.1667 12.5,18.8333 12.5,17.5C 14.5,17.5 16.5,17.5 18.5,17.5C 18.5,18.8333 18.5,20.1667 18.5,21.5 Z"/></g>
</svg>
