<?xml version="1.0" encoding="UTF-8"?>
<!DOCTYPE svg PUBLIC "-//W3C//DTD SVG 1.1//EN" "http://www.w3.org/Graphics/SVG/1.1/DTD/svg11.dtd">
<svg xmlns="http://www.w3.org/2000/svg" version="1.1" width="32px" height="32px" style="shape-rendering:geometricPrecision; text-rendering:geometricPrecision; image-rendering:optimizeQuality; fill-rule:evenodd; clip-rule:evenodd" xmlns:xlink="http://www.w3.org/1999/xlink">
<g><path style="opacity:0.964" fill="#7dc5d8" d="M 9.5,-0.5 C 13.5,-0.5 17.5,-0.5 21.5,-0.5C 25.8333,1.83333 29.1667,5.16667 31.5,9.5C 31.5,13.5 31.5,17.5 31.5,21.5C 29.1667,25.8333 25.8333,29.1667 21.5,31.5C 17.5,31.5 13.5,31.5 9.5,31.5C 8.83333,30.8333 8.16667,30.1667 7.5,29.5C 10.6963,28.0713 13.6963,26.4046 16.5,24.5C 17.8221,24.67 18.9887,24.3366 20,23.5C 20.6328,17.839 21.1328,12.1723 21.5,6.5C 17.2984,6.18325 13.2984,6.51658 9.5,7.5C 6.16667,8.83333 2.83333,10.1667 -0.5,11.5C -0.5,10.8333 -0.5,10.1667 -0.5,9.5C 1.83333,5.16667 5.16667,1.83333 9.5,-0.5 Z"/></g>
<g><path style="opacity:0.97" fill="#6eacbd" d="M 9.5,7.5 C 9.88926,12.504 10.3893,17.504 11,22.5C 12.4007,24.1922 14.2341,24.8588 16.5,24.5C 13.6963,26.4046 10.6963,28.0713 7.5,29.5C 3.82707,27.8271 1.16041,25.1604 -0.5,21.5C -0.5,18.1667 -0.5,14.8333 -0.5,11.5C 2.83333,10.1667 6.16667,8.83333 9.5,7.5 Z"/></g>
<g><path style="opacity:1" fill="#a4c5d4" d="M 16.5,24.5 C 14.2341,24.8588 12.4007,24.1922 11,22.5C 10.3893,17.504 9.88926,12.504 9.5,7.5C 13.2984,6.51658 17.2984,6.18325 21.5,6.5C 21.1328,12.1723 20.6328,17.839 20,23.5C 18.9887,24.3366 17.8221,24.67 16.5,24.5 Z"/></g>
<g><path style="opacity:1" fill="#ea2c5c" d="M 19.5,12.5 C 18.5863,15.728 18.2529,19.0613 18.5,22.5C 16.5,22.5 14.5,22.5 12.5,22.5C 12.7471,19.0613 12.4137,15.728 11.5,12.5C 14.1667,11.1667 16.8333,11.1667 19.5,12.5 Z"/></g>
<g><path style="opacity:1" fill="#74aebf" d="M 19.5,12.5 C 16.8333,11.1667 14.1667,11.1667 11.5,12.5C 10.5489,11.0813 10.2155,9.41467 10.5,7.5C 13.8333,7.5 17.1667,7.5 20.5,7.5C 20.7845,9.41467 20.4511,11.0813 19.5,12.5 Z"/></g>
</svg>
