<?xml version="1.0" encoding="UTF-8"?>
<!DOCTYPE svg PUBLIC "-//W3C//DTD SVG 1.1//EN" "http://www.w3.org/Graphics/SVG/1.1/DTD/svg11.dtd">
<svg xmlns="http://www.w3.org/2000/svg" version="1.1" width="32px" height="32px" style="shape-rendering:geometricPrecision; text-rendering:geometricPrecision; image-rendering:optimizeQuality; fill-rule:evenodd; clip-rule:evenodd" xmlns:xlink="http://www.w3.org/1999/xlink">
<g><path style="opacity:0.948" fill="#fcc85b" d="M 9.5,-0.5 C 13.5,-0.5 17.5,-0.5 21.5,-0.5C 25.8333,1.83333 29.1667,5.16667 31.5,9.5C 31.5,13.5 31.5,17.5 31.5,21.5C 29.1667,25.8333 25.8333,29.1667 21.5,31.5C 17.5,31.5 13.5,31.5 9.5,31.5C 8.70951,30.5987 7.70951,29.9321 6.5,29.5C 10.6755,27.1105 15.0088,25.1105 19.5,23.5C 20.1174,23.3893 20.6174,23.056 21,22.5C 21.989,19.5443 22.8223,16.5443 23.5,13.5C 23.5466,11.9623 22.8799,10.9623 21.5,10.5C 20.2946,9.31434 18.9613,9.31434 17.5,10.5C 17.5,10.1667 17.5,9.83333 17.5,9.5C 17.5,9.16667 17.5,8.83333 17.5,8.5C 19.3841,8.28818 20.7174,7.28818 21.5,5.5C 19.8327,4.33363 18.166,4.33363 16.5,5.5C 10.5307,6.15664 4.864,7.82331 -0.5,10.5C -0.5,10.1667 -0.5,9.83333 -0.5,9.5C 1.83333,5.16667 5.16667,1.83333 9.5,-0.5 Z"/></g>
<g><path style="opacity:1" fill="#326a34" d="M 17.5,8.5 C 16.6618,8.15829 16.3284,7.49162 16.5,6.5C 16.5,6.16667 16.5,5.83333 16.5,5.5C 18.166,4.33363 19.8327,4.33363 21.5,5.5C 20.7174,7.28818 19.3841,8.28818 17.5,8.5 Z"/></g>
<g><path style="opacity:0.964" fill="#d7ad4e" d="M 16.5,5.5 C 16.5,5.83333 16.5,6.16667 16.5,6.5C 15.8333,6.5 15.1667,6.5 14.5,6.5C 13.6236,6.36912 12.9569,6.70245 12.5,7.5C 13.7053,8.99481 13.7053,10.3281 12.5,11.5C 10.1054,8.85508 8.43875,9.52174 7.5,13.5C 8.17771,16.5443 9.01104,19.5443 10,22.5C 10.3826,23.056 10.8826,23.3893 11.5,23.5C 12.1667,24.8333 12.8333,24.8333 13.5,23.5C 15.451,23.7733 16.951,23.1066 18,21.5C 18.2784,22.4158 18.7784,23.0825 19.5,23.5C 15.0088,25.1105 10.6755,27.1105 6.5,29.5C 3.42088,27.4251 1.08754,24.7584 -0.5,21.5C -0.5,17.8333 -0.5,14.1667 -0.5,10.5C 4.864,7.82331 10.5307,6.15664 16.5,5.5 Z"/></g>
<g><path style="opacity:1" fill="#4d3c1d" d="M 14.5,6.5 C 15.1667,6.5 15.8333,6.5 16.5,6.5C 16.3284,7.49162 16.6618,8.15829 17.5,8.5C 17.5,8.83333 17.5,9.16667 17.5,9.5C 16.5,9.5 15.5,9.5 14.5,9.5C 14.5,8.5 14.5,7.5 14.5,6.5 Z"/></g>
<g><path style="opacity:1" fill="#2c6934" d="M 12.5,11.5 C 11.7382,15.5302 11.4049,19.5302 11.5,23.5C 10.8826,23.3893 10.3826,23.056 10,22.5C 9.01104,19.5443 8.17771,16.5443 7.5,13.5C 8.43875,9.52174 10.1054,8.85508 12.5,11.5 Z"/></g>
<g><path style="opacity:1" fill="#2a6833" d="M 14.5,6.5 C 14.5,7.5 14.5,8.5 14.5,9.5C 15.5,9.5 16.5,9.5 17.5,9.5C 17.5,9.83333 17.5,10.1667 17.5,10.5C 18.2515,13.7473 18.7515,17.0806 19,20.5C 18.9165,16.6887 19.7499,13.3554 21.5,10.5C 22.8799,10.9623 23.5466,11.9623 23.5,13.5C 22.8223,16.5443 21.989,19.5443 21,22.5C 20.6174,23.056 20.1174,23.3893 19.5,23.5C 18.7784,23.0825 18.2784,22.4158 18,21.5C 16.951,23.1066 15.451,23.7733 13.5,23.5C 12.8379,19.5341 12.5045,15.5341 12.5,11.5C 13.7053,10.3281 13.7053,8.99481 12.5,7.5C 12.9569,6.70245 13.6236,6.36912 14.5,6.5 Z"/></g>
<g><path style="opacity:1" fill="#898f42" d="M 21.5,10.5 C 19.7499,13.3554 18.9165,16.6887 19,20.5C 18.7515,17.0806 18.2515,13.7473 17.5,10.5C 18.9613,9.31434 20.2946,9.31434 21.5,10.5 Z"/></g>
<g><path style="opacity:1" fill="#7a8840" d="M 12.5,11.5 C 12.5045,15.5341 12.8379,19.5341 13.5,23.5C 12.8333,24.8333 12.1667,24.8333 11.5,23.5C 11.4049,19.5302 11.7382,15.5302 12.5,11.5 Z"/></g>
</svg>
