<?xml version="1.0" encoding="UTF-8"?>
<!DOCTYPE svg PUBLIC "-//W3C//DTD SVG 1.1//EN" "http://www.w3.org/Graphics/SVG/1.1/DTD/svg11.dtd">
<svg xmlns="http://www.w3.org/2000/svg" version="1.1" width="32px" height="32px" style="shape-rendering:geometricPrecision; text-rendering:geometricPrecision; image-rendering:optimizeQuality; fill-rule:evenodd; clip-rule:evenodd" xmlns:xlink="http://www.w3.org/1999/xlink">
<g><path style="opacity:0.968" fill="#9d1f63" d="M 9.5,-0.5 C 13.5,-0.5 17.5,-0.5 21.5,-0.5C 23.3492,0.593015 25.0158,1.92635 26.5,3.5C 24.8061,5.86058 22.8061,7.86058 20.5,9.5C 14.6003,9.06559 12.267,11.7323 13.5,17.5C 10.5,17.1667 9.16667,18.5 9.5,21.5C 7.5,23.1667 5.5,24.8333 3.5,26.5C 1.92635,25.0158 0.593015,23.3492 -0.5,21.5C -0.5,17.5 -0.5,13.5 -0.5,9.5C 1.83333,5.16667 5.16667,1.83333 9.5,-0.5 Z"/></g>
<g><path style="opacity:0.983" fill="#8e1d5a" d="M 26.5,3.5 C 28.6433,5.13072 30.31,7.13072 31.5,9.5C 31.5,13.5 31.5,17.5 31.5,21.5C 29.1667,25.8333 25.8333,29.1667 21.5,31.5C 17.5,31.5 13.5,31.5 9.5,31.5C 7.13072,30.31 5.13072,28.6433 3.5,26.5C 5.5,24.8333 7.5,23.1667 9.5,21.5C 11.1439,21.7135 12.6439,21.3802 14,20.5C 14.1858,18.0995 14.6858,15.7662 15.5,13.5C 17.0709,12.6906 18.7376,12.3573 20.5,12.5C 20.5,13.8333 20.5,15.1667 20.5,16.5C 17.5,16.1667 16.1667,17.5 16.5,20.5C 18.1439,20.7135 19.6439,20.3802 21,19.5C 21.8075,15.9733 21.6408,12.6399 20.5,9.5C 22.8061,7.86058 24.8061,5.86058 26.5,3.5 Z"/></g>
<g><path style="opacity:1" fill="#369cd4" d="M 20.5,9.5 C 21.6408,12.6399 21.8075,15.9733 21,19.5C 19.6439,20.3802 18.1439,20.7135 16.5,20.5C 16.1667,17.5 17.5,16.1667 20.5,16.5C 20.5,15.1667 20.5,13.8333 20.5,12.5C 18.7376,12.3573 17.0709,12.6906 15.5,13.5C 14.6858,15.7662 14.1858,18.0995 14,20.5C 12.6439,21.3802 11.1439,21.7135 9.5,21.5C 9.16667,18.5 10.5,17.1667 13.5,17.5C 12.267,11.7323 14.6003,9.06559 20.5,9.5 Z"/></g>
</svg>
