<?xml version="1.0" encoding="UTF-8"?>
<!DOCTYPE svg PUBLIC "-//W3C//DTD SVG 1.1//EN" "http://www.w3.org/Graphics/SVG/1.1/DTD/svg11.dtd">
<svg xmlns="http://www.w3.org/2000/svg" version="1.1" width="32px" height="32px" style="shape-rendering:geometricPrecision; text-rendering:geometricPrecision; image-rendering:optimizeQuality; fill-rule:evenodd; clip-rule:evenodd" xmlns:xlink="http://www.w3.org/1999/xlink">
<g><path style="opacity:0.975" fill="#97cbb4" d="M 9.5,-0.5 C 13.5,-0.5 17.5,-0.5 21.5,-0.5C 25.8333,1.83333 29.1667,5.16667 31.5,9.5C 31.5,13.5 31.5,17.5 31.5,21.5C 29.1667,25.8333 25.8333,29.1667 21.5,31.5C 17.5,31.5 13.5,31.5 9.5,31.5C 8.70951,30.5987 7.70951,29.9321 6.5,29.5C 9.45957,27.0701 12.7929,25.4034 16.5,24.5C 21.111,21.8544 22.9443,17.8544 22,12.5C 21.6174,11.944 21.1174,11.6107 20.5,11.5C 19.0474,10.1751 19.3808,9.3418 21.5,9C 18.8807,8.84851 16.5473,8.01518 14.5,6.5C 13.4763,7.85318 12.143,8.51985 10.5,8.5C 6.72075,9.55778 3.05408,10.8911 -0.5,12.5C -0.5,11.5 -0.5,10.5 -0.5,9.5C 1.83333,5.16667 5.16667,1.83333 9.5,-0.5 Z"/></g>
<g><path style="opacity:0.994" fill="#85b19c" d="M 10.5,8.5 C 10.8333,9.16667 11.1667,9.83333 11.5,10.5C 8.66763,12.4065 7.8343,15.0732 9,18.5C 10.1996,22.2061 12.6996,24.2061 16.5,24.5C 12.7929,25.4034 9.45957,27.0701 6.5,29.5C 3.42088,27.4251 1.08754,24.7584 -0.5,21.5C -0.5,18.5 -0.5,15.5 -0.5,12.5C 3.05408,10.8911 6.72075,9.55778 10.5,8.5 Z"/></g>
<g><path style="opacity:1" fill="#885b5b" d="M 20.5,11.5 C 19.8333,12.8333 19.1667,12.8333 18.5,11.5C 17.88,9.02333 16.88,9.02333 15.5,11.5C 14.787,9.56503 13.787,9.2317 12.5,10.5C 12.1667,10.5 11.8333,10.5 11.5,10.5C 11.1667,9.83333 10.8333,9.16667 10.5,8.5C 12.143,8.51985 13.4763,7.85318 14.5,6.5C 16.5473,8.01518 18.8807,8.84851 21.5,9C 19.3808,9.3418 19.0474,10.1751 20.5,11.5 Z"/></g>
<g><path style="opacity:1" fill="#385b36" d="M 18.5,11.5 C 17.7784,11.9175 17.2784,12.5842 17,13.5C 16,12.1667 15,12.1667 14,13.5C 13.4867,12.4734 12.9867,11.4734 12.5,10.5C 13.787,9.2317 14.787,9.56503 15.5,11.5C 16.88,9.02333 17.88,9.02333 18.5,11.5 Z"/></g>
<g><path style="opacity:1" fill="#eb485c" d="M 11.5,10.5 C 11.8333,10.5 12.1667,10.5 12.5,10.5C 12.9867,11.4734 13.4867,12.4734 14,13.5C 15,12.1667 16,12.1667 17,13.5C 17.2784,12.5842 17.7784,11.9175 18.5,11.5C 19.1667,12.8333 19.8333,12.8333 20.5,11.5C 21.1174,11.6107 21.6174,11.944 22,12.5C 22.9443,17.8544 21.111,21.8544 16.5,24.5C 12.6996,24.2061 10.1996,22.2061 9,18.5C 7.8343,15.0732 8.66763,12.4065 11.5,10.5 Z"/></g>
</svg>
