<?xml version="1.0" encoding="UTF-8"?>
<!DOCTYPE svg PUBLIC "-//W3C//DTD SVG 1.1//EN" "http://www.w3.org/Graphics/SVG/1.1/DTD/svg11.dtd">
<svg xmlns="http://www.w3.org/2000/svg" version="1.1" width="32px" height="32px" style="shape-rendering:geometricPrecision; text-rendering:geometricPrecision; image-rendering:optimizeQuality; fill-rule:evenodd; clip-rule:evenodd" xmlns:xlink="http://www.w3.org/1999/xlink">
<g><path style="opacity:0.978" fill="#f16c67" d="M 9.5,-0.5 C 13.5,-0.5 17.5,-0.5 21.5,-0.5C 25.8333,1.83333 29.1667,5.16667 31.5,9.5C 31.5,13.5 31.5,17.5 31.5,21.5C 29.1667,25.8333 25.8333,29.1667 21.5,31.5C 17.5,31.5 13.5,31.5 9.5,31.5C 7.13072,30.31 5.13072,28.6433 3.5,26.5C 5.9154,25.6948 8.24873,24.6948 10.5,23.5C 14.6411,21.8822 18.1411,19.2155 21,15.5C 21.4922,14.451 21.3256,13.451 20.5,12.5C 21.376,11.7492 22.376,11.2492 23.5,11C 22.3333,9.83333 21.1667,8.66667 20,7.5C 19.7508,8.62402 19.2508,9.62402 18.5,10.5C 17.135,9.19314 15.8016,9.19314 14.5,10.5C 9.34763,12.1066 4.34763,14.1066 -0.5,16.5C -0.5,14.1667 -0.5,11.8333 -0.5,9.5C 1.83333,5.16667 5.16667,1.83333 9.5,-0.5 Z"/></g>
<g><path style="opacity:1" fill="#f7f271" d="M 10.5,23.5 C 9.7101,22.2058 8.7101,21.0391 7.5,20C 9.21348,16.4421 11.5468,13.2755 14.5,10.5C 15.8016,9.19314 17.135,9.19314 18.5,10.5C 19.2508,9.62402 19.7508,8.62402 20,7.5C 21.1667,8.66667 22.3333,9.83333 23.5,11C 22.376,11.2492 21.376,11.7492 20.5,12.5C 21.3256,13.451 21.4922,14.451 21,15.5C 18.1411,19.2155 14.6411,21.8822 10.5,23.5 Z"/></g>
<g><path style="opacity:0.994" fill="#d4605a" d="M 14.5,10.5 C 11.5468,13.2755 9.21348,16.4421 7.5,20C 8.7101,21.0391 9.7101,22.2058 10.5,23.5C 8.24873,24.6948 5.9154,25.6948 3.5,26.5C 1.92635,25.0158 0.593015,23.3492 -0.5,21.5C -0.5,19.8333 -0.5,18.1667 -0.5,16.5C 4.34763,14.1066 9.34763,12.1066 14.5,10.5 Z"/></g>
</svg>
