<?xml version="1.0" encoding="UTF-8"?>
<!DOCTYPE svg PUBLIC "-//W3C//DTD SVG 1.1//EN" "http://www.w3.org/Graphics/SVG/1.1/DTD/svg11.dtd">
<svg xmlns="http://www.w3.org/2000/svg" version="1.1" width="32px" height="32px" style="shape-rendering:geometricPrecision; text-rendering:geometricPrecision; image-rendering:optimizeQuality; fill-rule:evenodd; clip-rule:evenodd" xmlns:xlink="http://www.w3.org/1999/xlink">
<g><path style="opacity:0.973" fill="#96cbb3" d="M 9.5,-0.5 C 13.5,-0.5 17.5,-0.5 21.5,-0.5C 25.8333,1.83333 29.1667,5.16667 31.5,9.5C 31.5,13.5 31.5,17.5 31.5,21.5C 29.1667,25.8333 25.8333,29.1667 21.5,31.5C 17.5,31.5 13.5,31.5 9.5,31.5C 8.70951,30.5987 7.70951,29.9321 6.5,29.5C 10.0578,27.5537 13.7245,25.8871 17.5,24.5C 23.2405,23.0268 25.4071,19.3601 24,13.5C 23.6232,12.0577 22.7899,11.0577 21.5,10.5C 21.19,9.26166 20.69,9.26166 20,10.5C 19.3828,9.55085 19.5494,8.71752 20.5,8C 20,7.83333 19.5,7.66667 19,7.5C 16.2198,7.94725 13.3864,7.94725 10.5,7.5C 6.95681,9.43826 3.29014,11.1049 -0.5,12.5C -0.5,11.5 -0.5,10.5 -0.5,9.5C 1.83333,5.16667 5.16667,1.83333 9.5,-0.5 Z"/></g>
<g><path style="opacity:1" fill="#357246" d="M 10.5,7.5 C 13.3864,7.94725 16.2198,7.94725 19,7.5C 19.5,7.66667 20,7.83333 20.5,8C 19.5494,8.71752 19.3828,9.55085 20,10.5C 20.69,9.26166 21.19,9.26166 21.5,10.5C 21.8808,12.9418 21.2141,13.6085 19.5,12.5C 18.7492,13.376 18.2492,14.376 18,15.5C 17.2411,13.9371 16.0744,12.9371 14.5,12.5C 13.234,11.9101 11.9007,11.4101 10.5,11C 11.6843,9.85453 11.6843,8.68787 10.5,7.5 Z"/></g>
<g><path style="opacity:0.991" fill="#84ac98" d="M 10.5,7.5 C 11.6843,8.68787 11.6843,9.85453 10.5,11C 11.9007,11.4101 13.234,11.9101 14.5,12.5C 13.5627,16.4301 12.5627,16.4301 11.5,12.5C 9.89828,13.55 9.06495,12.8833 9,10.5C 4.38375,19.5945 7.21708,24.2611 17.5,24.5C 13.7245,25.8871 10.0578,27.5537 6.5,29.5C 3.42088,27.4251 1.08754,24.7584 -0.5,21.5C -0.5,18.5 -0.5,15.5 -0.5,12.5C 3.29014,11.1049 6.95681,9.43826 10.5,7.5 Z"/></g>
<g><path style="opacity:1" fill="#e7265c" d="M 14.5,12.5 C 16.0744,12.9371 17.2411,13.9371 18,15.5C 18.2492,14.376 18.7492,13.376 19.5,12.5C 21.2141,13.6085 21.8808,12.9418 21.5,10.5C 22.7899,11.0577 23.6232,12.0577 24,13.5C 25.4071,19.3601 23.2405,23.0268 17.5,24.5C 7.21708,24.2611 4.38375,19.5945 9,10.5C 9.06495,12.8833 9.89828,13.55 11.5,12.5C 12.5627,16.4301 13.5627,16.4301 14.5,12.5 Z"/></g>
</svg>
