<?xml version="1.0" encoding="UTF-8"?>
<!DOCTYPE svg PUBLIC "-//W3C//DTD SVG 1.1//EN" "http://www.w3.org/Graphics/SVG/1.1/DTD/svg11.dtd">
<svg xmlns="http://www.w3.org/2000/svg" version="1.1" width="32px" height="32px" style="shape-rendering:geometricPrecision; text-rendering:geometricPrecision; image-rendering:optimizeQuality; fill-rule:evenodd; clip-rule:evenodd" xmlns:xlink="http://www.w3.org/1999/xlink">
<g><path style="opacity:0.966" fill="#81c6d8" d="M 9.5,-0.5 C 13.5,-0.5 17.5,-0.5 21.5,-0.5C 25.8333,1.83333 29.1667,5.16667 31.5,9.5C 31.5,13.5 31.5,17.5 31.5,21.5C 29.1667,25.8333 25.8333,29.1667 21.5,31.5C 17.5,31.5 13.5,31.5 9.5,31.5C 9.5,30.8333 9.16667,30.5 8.5,30.5C 11.4627,28.2145 14.796,26.3812 18.5,25C 15.8333,24.6667 13.1667,24.3333 10.5,24C 11.7932,23.51 13.1266,23.3433 14.5,23.5C 14.5,21.8333 14.5,20.1667 14.5,18.5C 18.1667,18.1667 20.1667,16.1667 20.5,12.5C 20.5,10.5 20.5,8.5 20.5,6.5C 16.9581,6.18723 13.6248,6.52056 10.5,7.5C 6.90137,8.69877 3.2347,9.69877 -0.5,10.5C -0.5,10.1667 -0.5,9.83333 -0.5,9.5C 1.83333,5.16667 5.16667,1.83333 9.5,-0.5 Z"/></g>
<g><path style="opacity:0.973" fill="#6facbc" d="M 10.5,7.5 C 10.5,9.16667 10.5,10.8333 10.5,12.5C 10.6225,15.2921 11.9558,17.2921 14.5,18.5C 14.5,20.1667 14.5,21.8333 14.5,23.5C 13.1266,23.3433 11.7932,23.51 10.5,24C 13.1667,24.3333 15.8333,24.6667 18.5,25C 14.796,26.3812 11.4627,28.2145 8.5,30.5C 4.4722,28.4722 1.4722,25.4722 -0.5,21.5C -0.5,17.8333 -0.5,14.1667 -0.5,10.5C 3.2347,9.69877 6.90137,8.69877 10.5,7.5 Z"/></g>
<g><path style="opacity:1" fill="#faeadd" d="M 20.5,12.5 C 17.1667,12.5 13.8333,12.5 10.5,12.5C 10.5,10.8333 10.5,9.16667 10.5,7.5C 13.6248,6.52056 16.9581,6.18723 20.5,6.5C 20.5,8.5 20.5,10.5 20.5,12.5 Z"/></g>
<g><path style="opacity:1" fill="#ef6e6b" d="M 10.5,12.5 C 13.8333,12.5 17.1667,12.5 20.5,12.5C 20.1667,16.1667 18.1667,18.1667 14.5,18.5C 11.9558,17.2921 10.6225,15.2921 10.5,12.5 Z"/></g>
</svg>
