<?xml version="1.0" encoding="UTF-8"?>
<!DOCTYPE svg PUBLIC "-//W3C//DTD SVG 1.1//EN" "http://www.w3.org/Graphics/SVG/1.1/DTD/svg11.dtd">
<svg xmlns="http://www.w3.org/2000/svg" version="1.1" width="32px" height="32px" style="shape-rendering:geometricPrecision; text-rendering:geometricPrecision; image-rendering:optimizeQuality; fill-rule:evenodd; clip-rule:evenodd" xmlns:xlink="http://www.w3.org/1999/xlink">
<g><path style="opacity:0.955" fill="#fec85b" d="M 9.5,-0.5 C 13.5,-0.5 17.5,-0.5 21.5,-0.5C 25.8333,1.83333 29.1667,5.16667 31.5,9.5C 31.5,13.5 31.5,17.5 31.5,21.5C 29.1667,25.8333 25.8333,29.1667 21.5,31.5C 17.5,31.5 13.5,31.5 9.5,31.5C 7.65084,30.407 5.98417,29.0737 4.5,27.5C 8.906,25.4842 13.2393,23.4842 17.5,21.5C 18.4916,21.6716 19.1583,21.3382 19.5,20.5C 20.7777,20.2178 21.7777,19.5511 22.5,18.5C 25.7502,17.0858 26.0835,15.4191 23.5,13.5C 22.7377,11.7376 21.4044,10.7376 19.5,10.5C 16.6965,9.36216 13.6965,9.19549 10.5,10C 9.94404,10.3826 9.61071,10.8826 9.5,11.5C 8.83333,11.8333 8.16667,12.1667 7.5,12.5C 4.67264,12.5838 2.00598,13.2504 -0.5,14.5C -0.5,12.8333 -0.5,11.1667 -0.5,9.5C 1.83333,5.16667 5.16667,1.83333 9.5,-0.5 Z"/></g>
<g><path style="opacity:1" fill="#f48475" d="M 19.5,10.5 C 16.3915,10.2641 13.3915,10.5975 10.5,11.5C 10.1667,11.5 9.83333,11.5 9.5,11.5C 9.61071,10.8826 9.94404,10.3826 10.5,10C 13.6965,9.19549 16.6965,9.36216 19.5,10.5 Z"/></g>
<g><path style="opacity:1" fill="#fee9db" d="M 19.5,10.5 C 19.6107,11.1174 19.944,11.6174 20.5,12C 16.9733,12.8075 13.6399,12.6408 10.5,11.5C 13.3915,10.5975 16.3915,10.2641 19.5,10.5 Z"/></g>
<g><path style="opacity:0.961" fill="#deaf50" d="M 7.5,12.5 C 7.5,12.8333 7.5,13.1667 7.5,13.5C 4.91646,15.4191 5.24979,17.0858 8.5,18.5C 8.9528,19.4584 9.61947,20.2917 10.5,21C 12.8098,21.4966 15.1432,21.6633 17.5,21.5C 13.2393,23.4842 8.906,25.4842 4.5,27.5C 2.35665,25.8693 0.689986,23.8693 -0.5,21.5C -0.5,19.1667 -0.5,16.8333 -0.5,14.5C 2.00598,13.2504 4.67264,12.5838 7.5,12.5 Z"/></g>
<g><path style="opacity:1" fill="#fab7ab" d="M 19.5,10.5 C 21.4044,10.7376 22.7377,11.7376 23.5,13.5C 22.8333,13.5 22.1667,13.5 21.5,13.5C 19.8333,13.5 18.1667,13.5 16.5,13.5C 15.8333,13.5 15.1667,13.5 14.5,13.5C 12.8333,13.5 11.1667,13.5 9.5,13.5C 8.83333,13.5 8.16667,13.5 7.5,13.5C 7.5,13.1667 7.5,12.8333 7.5,12.5C 8.16667,12.1667 8.83333,11.8333 9.5,11.5C 9.83333,11.5 10.1667,11.5 10.5,11.5C 13.6399,12.6408 16.9733,12.8075 20.5,12C 19.944,11.6174 19.6107,11.1174 19.5,10.5 Z"/></g>
<g><path style="opacity:1" fill="#faa960" d="M 7.5,13.5 C 8.16667,13.5 8.83333,13.5 9.5,13.5C 11.1667,16.1667 12.8333,16.1667 14.5,13.5C 15.1667,13.5 15.8333,13.5 16.5,13.5C 18.1667,16.1667 19.8333,16.1667 21.5,13.5C 22.1667,13.5 22.8333,13.5 23.5,13.5C 25.0329,15.7896 24.6996,16.4563 22.5,15.5C 21.4777,15.8555 20.811,16.5222 20.5,17.5C 19.5,17.5 18.5,17.5 17.5,17.5C 16.1667,14.8333 14.8333,14.8333 13.5,17.5C 12.5,17.5 11.5,17.5 10.5,17.5C 9.74547,15.5337 8.5788,15.2004 7,16.5C 6.53042,15.4232 6.69708,14.4232 7.5,13.5 Z"/></g>
<g><path style="opacity:1" fill="#f27468" d="M 16.5,13.5 C 18.1667,13.5 19.8333,13.5 21.5,13.5C 19.8333,16.1667 18.1667,16.1667 16.5,13.5 Z"/></g>
<g><path style="opacity:1" fill="#f27368" d="M 9.5,13.5 C 11.1667,13.5 12.8333,13.5 14.5,13.5C 12.8333,16.1667 11.1667,16.1667 9.5,13.5 Z"/></g>
<g><path style="opacity:1" fill="#f07267" d="M 7.5,13.5 C 6.69708,14.4232 6.53042,15.4232 7,16.5C 8.5788,15.2004 9.74547,15.5337 10.5,17.5C 9.50838,17.3284 8.84171,17.6618 8.5,18.5C 5.24979,17.0858 4.91646,15.4191 7.5,13.5 Z"/></g>
<g><path style="opacity:1" fill="#f26d69" d="M 17.5,17.5 C 16.1667,17.5 14.8333,17.5 13.5,17.5C 14.8333,14.8333 16.1667,14.8333 17.5,17.5 Z"/></g>
<g><path style="opacity:1" fill="#f37468" d="M 23.5,13.5 C 26.0835,15.4191 25.7502,17.0858 22.5,18.5C 22.1583,17.6618 21.4916,17.3284 20.5,17.5C 20.811,16.5222 21.4777,15.8555 22.5,15.5C 24.6996,16.4563 25.0329,15.7896 23.5,13.5 Z"/></g>
<g><path style="opacity:1" fill="#fbc2b6" d="M 8.5,18.5 C 8.84171,17.6618 9.50838,17.3284 10.5,17.5C 11.5,17.5 12.5,17.5 13.5,17.5C 14.8333,17.5 16.1667,17.5 17.5,17.5C 18.5,17.5 19.5,17.5 20.5,17.5C 21.4916,17.3284 22.1583,17.6618 22.5,18.5C 21.7777,19.5511 20.7777,20.2178 19.5,20.5C 19.6107,19.8826 19.944,19.3826 20.5,19C 17.1832,18.5017 13.8499,18.335 10.5,18.5C 9.83333,18.5 9.16667,18.5 8.5,18.5 Z"/></g>
<g><path style="opacity:1" fill="#fee9db" d="M 10.5,18.5 C 13.8499,18.335 17.1832,18.5017 20.5,19C 19.944,19.3826 19.6107,19.8826 19.5,20.5C 16.8127,20.6641 14.146,20.4974 11.5,20C 10.944,19.6174 10.6107,19.1174 10.5,18.5 Z"/></g>
<g><path style="opacity:1" fill="#f3847a" d="M 8.5,18.5 C 9.16667,18.5 9.83333,18.5 10.5,18.5C 10.6107,19.1174 10.944,19.6174 11.5,20C 14.146,20.4974 16.8127,20.6641 19.5,20.5C 19.1583,21.3382 18.4916,21.6716 17.5,21.5C 15.1432,21.6633 12.8098,21.4966 10.5,21C 9.61947,20.2917 8.9528,19.4584 8.5,18.5 Z"/></g>
</svg>
