<?xml version="1.0" encoding="UTF-8"?>
<!DOCTYPE svg PUBLIC "-//W3C//DTD SVG 1.1//EN" "http://www.w3.org/Graphics/SVG/1.1/DTD/svg11.dtd">
<svg xmlns="http://www.w3.org/2000/svg" version="1.1" width="32px" height="32px" style="shape-rendering:geometricPrecision; text-rendering:geometricPrecision; image-rendering:optimizeQuality; fill-rule:evenodd; clip-rule:evenodd" xmlns:xlink="http://www.w3.org/1999/xlink">
<g><path style="opacity:0.969" fill="#7ec5d8" d="M 9.5,-0.5 C 13.5,-0.5 17.5,-0.5 21.5,-0.5C 25.8333,1.83333 29.1667,5.16667 31.5,9.5C 31.5,13.5 31.5,17.5 31.5,21.5C 29.1667,25.8333 25.8333,29.1667 21.5,31.5C 17.5,31.5 13.5,31.5 9.5,31.5C 7.65084,30.407 5.98417,29.0737 4.5,27.5C 7.01772,26.7362 9.35105,25.7362 11.5,24.5C 13.8355,21.4685 15.8355,18.1352 17.5,14.5C 16.7573,13.8182 16.0906,13.1515 15.5,12.5C 17.9124,12.756 19.5791,11.756 20.5,9.5C 19.0124,7.42282 17.0124,6.42282 14.5,6.5C 9.5621,8.36819 4.5621,10.0349 -0.5,11.5C -0.5,10.8333 -0.5,10.1667 -0.5,9.5C 1.83333,5.16667 5.16667,1.83333 9.5,-0.5 Z"/></g>
<g><path style="opacity:0.978" fill="#6eabbc" d="M 14.5,6.5 C 14.3253,8.6208 14.6586,10.6208 15.5,12.5C 14.5041,12.4142 13.6708,12.7476 13,13.5C 11.2919,17.2309 10.7919,20.8976 11.5,24.5C 9.35105,25.7362 7.01772,26.7362 4.5,27.5C 2.35665,25.8693 0.689986,23.8693 -0.5,21.5C -0.5,18.1667 -0.5,14.8333 -0.5,11.5C 4.5621,10.0349 9.5621,8.36819 14.5,6.5 Z"/></g>
<g><path style="opacity:1" fill="#367b5e" d="M 14.5,6.5 C 17.0124,6.42282 19.0124,7.42282 20.5,9.5C 19.5791,11.756 17.9124,12.756 15.5,12.5C 14.6586,10.6208 14.3253,8.6208 14.5,6.5 Z"/></g>
<g><path style="opacity:1" fill="#e13163" d="M 15.5,12.5 C 16.0906,13.1515 16.7573,13.8182 17.5,14.5C 15.8355,18.1352 13.8355,21.4685 11.5,24.5C 10.7919,20.8976 11.2919,17.2309 13,13.5C 13.6708,12.7476 14.5041,12.4142 15.5,12.5 Z"/></g>
</svg>
