<?xml version="1.0" encoding="UTF-8"?>
<!DOCTYPE svg PUBLIC "-//W3C//DTD SVG 1.1//EN" "http://www.w3.org/Graphics/SVG/1.1/DTD/svg11.dtd">
<svg xmlns="http://www.w3.org/2000/svg" version="1.1" width="32px" height="32px" style="shape-rendering:geometricPrecision; text-rendering:geometricPrecision; image-rendering:optimizeQuality; fill-rule:evenodd; clip-rule:evenodd" xmlns:xlink="http://www.w3.org/1999/xlink">
<g><path style="opacity:0.834" fill="#ec81a7" d="M 11.5,-0.5 C 14.1667,-0.5 16.8333,-0.5 19.5,-0.5C 25.5658,1.90014 29.5658,6.23347 31.5,12.5C 31.5,14.5 31.5,16.5 31.5,18.5C 29.5658,24.7665 25.5658,29.0999 19.5,31.5C 16.8333,31.5 14.1667,31.5 11.5,31.5C 5.43416,29.0999 1.43416,24.7665 -0.5,18.5C -0.5,16.5 -0.5,14.5 -0.5,12.5C 1.43416,6.23347 5.43416,1.90014 11.5,-0.5 Z"/></g>
<g><path style="opacity:1" fill="#c9b2ab" d="M 23.5,11.5 C 19.1667,11.5 14.8333,11.5 10.5,11.5C 9.83333,11.5 9.5,11.1667 9.5,10.5C 11.6413,9.8367 13.9746,9.50337 16.5,9.5C 19.2695,9.52856 21.6028,10.1952 23.5,11.5 Z"/></g>
<g><path style="opacity:1" fill="#a28173" d="M 10.5,11.5 C 14.8333,11.5 19.1667,11.5 23.5,11.5C 23.8221,15.3504 22.4887,18.517 19.5,21C 20.8333,21.3333 22.1667,21.6667 23.5,22C 15.8361,23.2158 12.5028,23.0492 13.5,21.5C 15.288,21.7852 16.9547,21.4519 18.5,20.5C 15.811,17.4802 13.1444,14.4802 10.5,11.5 Z"/></g>
<g><path style="opacity:1" fill="#b4686f" d="M 8.5,12.5 C 9.34141,14.3792 9.67474,16.3792 9.5,18.5C 7.27761,18.4413 6.27761,17.2747 6.5,15C 6.68423,13.6244 7.35089,12.7911 8.5,12.5 Z"/></g>
<g><path style="opacity:1" fill="#80533e" d="M 9.5,10.5 C 9.5,11.1667 9.83333,11.5 10.5,11.5C 13.1444,14.4802 15.811,17.4802 18.5,20.5C 16.9547,21.4519 15.288,21.7852 13.5,21.5C 12.7377,19.7376 11.4044,18.7376 9.5,18.5C 9.67474,16.3792 9.34141,14.3792 8.5,12.5C 8.32842,11.5084 8.66175,10.8417 9.5,10.5 Z"/></g>
</svg>
