<?xml version="1.0" encoding="UTF-8"?>
<!DOCTYPE svg PUBLIC "-//W3C//DTD SVG 1.1//EN" "http://www.w3.org/Graphics/SVG/1.1/DTD/svg11.dtd">
<svg xmlns="http://www.w3.org/2000/svg" version="1.1" width="32px" height="32px" style="shape-rendering:geometricPrecision; text-rendering:geometricPrecision; image-rendering:optimizeQuality; fill-rule:evenodd; clip-rule:evenodd" xmlns:xlink="http://www.w3.org/1999/xlink">
<g><path style="opacity:0.951" fill="#fdc85b" d="M 9.5,-0.5 C 13.5,-0.5 17.5,-0.5 21.5,-0.5C 25.8333,1.83333 29.1667,5.16667 31.5,9.5C 31.5,13.5 31.5,17.5 31.5,21.5C 29.1667,25.8333 25.8333,29.1667 21.5,31.5C 17.5,31.5 13.5,31.5 9.5,31.5C 8.16667,30.5 6.83333,29.5 5.5,28.5C 9.12671,27.6792 12.46,26.3459 15.5,24.5C 16.791,24.7373 17.791,24.404 18.5,23.5C 21.4025,21.6953 22.7359,19.0286 22.5,15.5C 22.6536,11.4726 20.9869,8.4726 17.5,6.5C 16.8933,6.62358 16.56,6.95691 16.5,7.5C 15.8333,7.16667 15.1667,6.83333 14.5,6.5C 12.9382,6.73286 11.6049,7.39952 10.5,8.5C 6.7653,9.30123 3.09863,10.3012 -0.5,11.5C -0.5,10.8333 -0.5,10.1667 -0.5,9.5C 1.83333,5.16667 5.16667,1.83333 9.5,-0.5 Z"/></g>
<g><path style="opacity:1" fill="#483219" d="M 14.5,6.5 C 14.1062,7.96718 13.7728,9.46718 13.5,11C 14.3017,14.404 15.3017,17.7373 16.5,21C 16.3517,22.2559 16.0184,23.4226 15.5,24.5C 12.3579,24.2007 10.1912,22.5341 9,19.5C 8.11224,15.5979 8.61224,11.9312 10.5,8.5C 11.6049,7.39952 12.9382,6.73286 14.5,6.5 Z"/></g>
<g><path style="opacity:1" fill="#4a3319" d="M 18.5,23.5 C 18.5412,19.0828 17.5412,14.9161 15.5,11C 15.6483,9.74407 15.9816,8.5774 16.5,7.5C 16.56,6.95691 16.8933,6.62358 17.5,6.5C 20.9869,8.4726 22.6536,11.4726 22.5,15.5C 22.7359,19.0286 21.4025,21.6953 18.5,23.5 Z"/></g>
<g><path style="opacity:0.965" fill="#dcae4f" d="M 10.5,8.5 C 8.61224,11.9312 8.11224,15.5979 9,19.5C 10.1912,22.5341 12.3579,24.2007 15.5,24.5C 12.46,26.3459 9.12671,27.6792 5.5,28.5C 2.78913,26.7248 0.789131,24.3915 -0.5,21.5C -0.5,18.1667 -0.5,14.8333 -0.5,11.5C 3.09863,10.3012 6.7653,9.30123 10.5,8.5 Z"/></g>
<g><path style="opacity:1" fill="#cda249" d="M 14.5,6.5 C 15.1667,6.83333 15.8333,7.16667 16.5,7.5C 15.9816,8.5774 15.6483,9.74407 15.5,11C 17.5412,14.9161 18.5412,19.0828 18.5,23.5C 17.791,24.404 16.791,24.7373 15.5,24.5C 16.0184,23.4226 16.3517,22.2559 16.5,21C 15.3017,17.7373 14.3017,14.404 13.5,11C 13.7728,9.46718 14.1062,7.96718 14.5,6.5 Z"/></g>
</svg>
