<?xml version="1.0" encoding="UTF-8"?>
<!DOCTYPE svg PUBLIC "-//W3C//DTD SVG 1.1//EN" "http://www.w3.org/Graphics/SVG/1.1/DTD/svg11.dtd">
<svg xmlns="http://www.w3.org/2000/svg" version="1.1" width="32px" height="32px" style="shape-rendering:geometricPrecision; text-rendering:geometricPrecision; image-rendering:optimizeQuality; fill-rule:evenodd; clip-rule:evenodd" xmlns:xlink="http://www.w3.org/1999/xlink">
<g><path style="opacity:0.845" fill="#fbcd6c" d="M 11.5,-0.5 C 14.1667,-0.5 16.8333,-0.5 19.5,-0.5C 25.5658,1.90014 29.5658,6.23347 31.5,12.5C 31.5,14.5 31.5,16.5 31.5,18.5C 29.5658,24.7665 25.5658,29.0999 19.5,31.5C 16.8333,31.5 14.1667,31.5 11.5,31.5C 5.43416,29.0999 1.43416,24.7665 -0.5,18.5C -0.5,16.5 -0.5,14.5 -0.5,12.5C 1.43416,6.23347 5.43416,1.90014 11.5,-0.5 Z"/></g>
<g><path style="opacity:1" fill="#b9914e" d="M 16.5,6.5 C 16.1667,6.5 15.8333,6.5 15.5,6.5C 15.555,3.14684 17.2217,1.64684 20.5,2C 18.3645,2.87627 17.0312,4.37627 16.5,6.5 Z"/></g>
<g><path style="opacity:1" fill="#f3f2ee" d="M 15.5,6.5 C 15.8333,6.5 16.1667,6.5 16.5,6.5C 20.3151,7.5338 21.3151,9.86713 19.5,13.5C 16.8333,13.5 14.1667,13.5 11.5,13.5C 11.5,11.1667 11.5,8.83333 11.5,6.5C 12.8333,6.5 14.1667,6.5 15.5,6.5 Z"/></g>
<g><path style="opacity:1" fill="#bcada2" d="M 11.5,13.5 C 14.1667,13.5 16.8333,13.5 19.5,13.5C 19.81,16.7131 19.4767,19.7131 18.5,22.5C 18.5,20.8333 18.5,19.1667 18.5,17.5C 16.5,17.5 14.5,17.5 12.5,17.5C 11.5655,16.4324 11.2322,15.099 11.5,13.5 Z"/></g>
<g><path style="opacity:1" fill="#53311e" d="M 13.5,27.5 C 13.5,26.1667 13.5,24.8333 13.5,23.5C 13.5,21.8333 13.5,20.1667 13.5,18.5C 14.8333,18.5 16.1667,18.5 17.5,18.5C 17.5,21.5 17.5,24.5 17.5,27.5C 16.1667,27.5 14.8333,27.5 13.5,27.5 Z"/></g>
<g><path style="opacity:1" fill="#705546" d="M 12.5,17.5 C 14.5,17.5 16.5,17.5 18.5,17.5C 18.5,19.1667 18.5,20.8333 18.5,22.5C 18.5,24.5 18.5,26.5 18.5,28.5C 16.5853,28.7845 14.9187,28.4511 13.5,27.5C 14.8333,27.5 16.1667,27.5 17.5,27.5C 17.5,24.5 17.5,21.5 17.5,18.5C 16.1667,18.5 14.8333,18.5 13.5,18.5C 13.5,20.1667 13.5,21.8333 13.5,23.5C 13.1667,23.5 12.8333,23.5 12.5,23.5C 12.5,21.5 12.5,19.5 12.5,17.5 Z"/></g>
<g><path style="opacity:1" fill="#caba9a" d="M 12.5,23.5 C 12.8333,23.5 13.1667,23.5 13.5,23.5C 13.5,24.8333 13.5,26.1667 13.5,27.5C 14.9187,28.4511 16.5853,28.7845 18.5,28.5C 16.7354,29.4614 14.7354,29.7947 12.5,29.5C 12.5,27.5 12.5,25.5 12.5,23.5 Z"/></g>
</svg>
