<?xml version="1.0" encoding="UTF-8"?>
<!DOCTYPE svg PUBLIC "-//W3C//DTD SVG 1.1//EN" "http://www.w3.org/Graphics/SVG/1.1/DTD/svg11.dtd">
<svg xmlns="http://www.w3.org/2000/svg" version="1.1" width="32px" height="32px" style="shape-rendering:geometricPrecision; text-rendering:geometricPrecision; image-rendering:optimizeQuality; fill-rule:evenodd; clip-rule:evenodd" xmlns:xlink="http://www.w3.org/1999/xlink">
<g><path style="opacity:0.977" fill="#f16b67" d="M 9.5,-0.5 C 13.5,-0.5 17.5,-0.5 21.5,-0.5C 25.8333,1.83333 29.1667,5.16667 31.5,9.5C 31.5,13.5 31.5,17.5 31.5,21.5C 29.1667,25.8333 25.8333,29.1667 21.5,31.5C 17.5,31.5 13.5,31.5 9.5,31.5C 8.70951,30.5987 7.70951,29.9321 6.5,29.5C 9.83333,27.8333 13.1667,26.1667 16.5,24.5C 20.5,24.1667 20.5,23.8333 16.5,23.5C 16.5,21.5 16.5,19.5 16.5,17.5C 17.8333,15.1667 19.1667,12.8333 20.5,10.5C 21.4778,10.189 22.1445,9.5223 22.5,8.5C 17.6819,7.18757 13.0152,7.18757 8.5,8.5C 5.40178,9.21632 2.40178,10.2163 -0.5,11.5C -0.5,10.8333 -0.5,10.1667 -0.5,9.5C 1.83333,5.16667 5.16667,1.83333 9.5,-0.5 Z"/></g>
<g><path style="opacity:0.994" fill="#d35f5a" d="M 8.5,8.5 C 8.83333,9.5 9.5,10.1667 10.5,10.5C 11.7787,13.1117 13.4453,15.4451 15.5,17.5C 15.5,19.5 15.5,21.5 15.5,23.5C 11.8284,24.0447 12.1617,24.3781 16.5,24.5C 13.1667,26.1667 9.83333,27.8333 6.5,29.5C 3.42088,27.4251 1.08754,24.7584 -0.5,21.5C -0.5,18.1667 -0.5,14.8333 -0.5,11.5C 2.40178,10.2163 5.40178,9.21632 8.5,8.5 Z"/></g>
<g><path style="opacity:1" fill="#fddacd" d="M 20.5,10.5 C 17.1667,10.5 13.8333,10.5 10.5,10.5C 9.5,10.1667 8.83333,9.5 8.5,8.5C 13.0152,7.18757 17.6819,7.18757 22.5,8.5C 22.1445,9.5223 21.4778,10.189 20.5,10.5 Z"/></g>
<g><path style="opacity:1" fill="#fdc561" d="M 10.5,10.5 C 13.8333,10.5 17.1667,10.5 20.5,10.5C 19.1667,12.8333 17.8333,15.1667 16.5,17.5C 16.1667,17.5 15.8333,17.5 15.5,17.5C 13.4453,15.4451 11.7787,13.1117 10.5,10.5 Z"/></g>
<g><path style="opacity:1" fill="#f2b1a7" d="M 15.5,17.5 C 15.8333,17.5 16.1667,17.5 16.5,17.5C 16.5,19.5 16.5,21.5 16.5,23.5C 20.5,23.8333 20.5,24.1667 16.5,24.5C 12.1617,24.3781 11.8284,24.0447 15.5,23.5C 15.5,21.5 15.5,19.5 15.5,17.5 Z"/></g>
</svg>
