<?xml version="1.0" encoding="UTF-8"?>
<!DOCTYPE svg PUBLIC "-//W3C//DTD SVG 1.1//EN" "http://www.w3.org/Graphics/SVG/1.1/DTD/svg11.dtd">
<svg xmlns="http://www.w3.org/2000/svg" version="1.1" width="32px" height="32px" style="shape-rendering:geometricPrecision; text-rendering:geometricPrecision; image-rendering:optimizeQuality; fill-rule:evenodd; clip-rule:evenodd" xmlns:xlink="http://www.w3.org/1999/xlink">
<g><path style="opacity:0.957" fill="#38b349" d="M 9.5,-0.5 C 13.5,-0.5 17.5,-0.5 21.5,-0.5C 23.3492,0.593015 25.0158,1.92635 26.5,3.5C 25.1667,5.5 23.5,7.16667 21.5,8.5C 18.5036,8.4928 15.5036,8.4928 12.5,8.5C 11.2566,7.26253 10.2566,7.59586 9.5,9.5C 10.0047,10.9185 11.0047,11.5852 12.5,11.5C 11.0813,12.4511 9.41467,12.7845 7.5,12.5C 7.5,13.5 7.5,14.5 7.5,15.5C 8.36863,17.717 8.70197,20.0504 8.5,22.5C 6.83333,23.8333 5.16667,25.1667 3.5,26.5C 1.92635,25.0158 0.593015,23.3492 -0.5,21.5C -0.5,17.5 -0.5,13.5 -0.5,9.5C 1.83333,5.16667 5.16667,1.83333 9.5,-0.5 Z"/></g>
<g><path style="opacity:0.997" fill="#32a142" d="M 26.5,3.5 C 28.6433,5.13072 30.31,7.13072 31.5,9.5C 31.5,13.5 31.5,17.5 31.5,21.5C 29.1667,25.8333 25.8333,29.1667 21.5,31.5C 17.5,31.5 13.5,31.5 9.5,31.5C 7.13072,30.31 5.13072,28.6433 3.5,26.5C 5.16667,25.1667 6.83333,23.8333 8.5,22.5C 8.5,23.1667 8.83333,23.5 9.5,23.5C 11.1667,23.5 12.8333,23.5 14.5,23.5C 15.1667,23.5 15.8333,23.5 16.5,23.5C 18.1667,23.5 19.8333,23.5 21.5,23.5C 22.2549,20.9471 22.9216,18.2804 23.5,15.5C 23.5,14.5 23.5,13.5 23.5,12.5C 21.5853,12.7845 19.9187,12.4511 18.5,11.5C 20.5,11.5 21.5,10.5 21.5,8.5C 23.5,7.16667 25.1667,5.5 26.5,3.5 Z"/></g>
<g><path style="opacity:1" fill="#cedf35" d="M 12.5,8.5 C 11.375,9.34775 11.375,10.3478 12.5,11.5C 11.0047,11.5852 10.0047,10.9185 9.5,9.5C 10.2566,7.59586 11.2566,7.26253 12.5,8.5 Z"/></g>
<g><path style="opacity:1" fill="#a6d23c" d="M 21.5,8.5 C 21.5,10.5 20.5,11.5 18.5,11.5C 16.5,10.1667 14.5,10.1667 12.5,11.5C 11.375,10.3478 11.375,9.34775 12.5,8.5C 15.5036,8.4928 18.5036,8.4928 21.5,8.5 Z"/></g>
<g><path style="opacity:1" fill="#f3ea31" d="M 18.5,11.5 C 19.9187,12.4511 21.5853,12.7845 23.5,12.5C 23.5,13.5 23.5,14.5 23.5,15.5C 21.1667,15.5 18.8333,15.5 16.5,15.5C 15.8333,11.5 15.1667,11.5 14.5,15.5C 12.1667,15.5 9.83333,15.5 7.5,15.5C 7.5,14.5 7.5,13.5 7.5,12.5C 9.41467,12.7845 11.0813,12.4511 12.5,11.5C 14.5,10.1667 16.5,10.1667 18.5,11.5 Z"/></g>
<g><path style="opacity:1" fill="#62b640" d="M 23.5,15.5 C 22.9216,18.2804 22.2549,20.9471 21.5,23.5C 21.5,21.1667 21.5,18.8333 21.5,16.5C 19.0576,16.3537 18.3909,17.187 19.5,19C 18.2805,20.7947 17.2805,20.6281 16.5,18.5C 15.221,17.2848 14.221,17.6182 13.5,19.5C 12.596,18.791 12.2627,17.791 12.5,16.5C 11.5,16.5 10.5,16.5 9.5,16.5C 9.5,18.8333 9.5,21.1667 9.5,23.5C 8.83333,23.5 8.5,23.1667 8.5,22.5C 8.70197,20.0504 8.36863,17.717 7.5,15.5C 9.83333,15.5 12.1667,15.5 14.5,15.5C 15.1667,11.5 15.8333,11.5 16.5,15.5C 18.8333,15.5 21.1667,15.5 23.5,15.5 Z"/></g>
<g><path style="opacity:1" fill="#f2e931" d="M 13.5,19.5 C 14.4345,20.5676 14.7678,21.901 14.5,23.5C 12.8333,23.5 11.1667,23.5 9.5,23.5C 9.5,21.1667 9.5,18.8333 9.5,16.5C 10.5,16.5 11.5,16.5 12.5,16.5C 12.2627,17.791 12.596,18.791 13.5,19.5 Z"/></g>
<g><path style="opacity:1" fill="#92c539" d="M 16.5,18.5 C 16.5,20.1667 16.5,21.8333 16.5,23.5C 15.8333,23.5 15.1667,23.5 14.5,23.5C 14.7678,21.901 14.4345,20.5676 13.5,19.5C 14.221,17.6182 15.221,17.2848 16.5,18.5 Z"/></g>
<g><path style="opacity:1" fill="#f0e831" d="M 21.5,23.5 C 19.8333,23.5 18.1667,23.5 16.5,23.5C 16.5,21.8333 16.5,20.1667 16.5,18.5C 17.2805,20.6281 18.2805,20.7947 19.5,19C 18.3909,17.187 19.0576,16.3537 21.5,16.5C 21.5,18.8333 21.5,21.1667 21.5,23.5 Z"/></g>
</svg>
