<?xml version="1.0" encoding="UTF-8"?>
<!DOCTYPE svg PUBLIC "-//W3C//DTD SVG 1.1//EN" "http://www.w3.org/Graphics/SVG/1.1/DTD/svg11.dtd">
<svg xmlns="http://www.w3.org/2000/svg" version="1.1" width="32px" height="32px" style="shape-rendering:geometricPrecision; text-rendering:geometricPrecision; image-rendering:optimizeQuality; fill-rule:evenodd; clip-rule:evenodd" xmlns:xlink="http://www.w3.org/1999/xlink">
<g><path style="opacity:0.975" fill="#f06c67" d="M 9.5,-0.5 C 13.5,-0.5 17.5,-0.5 21.5,-0.5C 25.8333,1.83333 29.1667,5.16667 31.5,9.5C 31.5,13.5 31.5,17.5 31.5,21.5C 29.1667,25.8333 25.8333,29.1667 21.5,31.5C 17.5,31.5 13.5,31.5 9.5,31.5C 8.83333,30.8333 8.16667,30.1667 7.5,29.5C 10.0791,27.9748 12.7458,26.6414 15.5,25.5C 18.6985,25.3036 20.6985,23.6369 21.5,20.5C 19.8281,17.0509 18.1614,13.7175 16.5,10.5C 16.5,9.83333 16.1667,9.5 15.5,9.5C 16.2625,8.73209 17.2625,8.23209 18.5,8C 17.8742,7.24956 17.3742,6.41623 17,5.5C 15.3005,6.40609 13.4672,6.73943 11.5,6.5C 7.70261,8.39649 3.70261,9.72982 -0.5,10.5C -0.5,10.1667 -0.5,9.83333 -0.5,9.5C 1.83333,5.16667 5.16667,1.83333 9.5,-0.5 Z"/></g>
<g><path style="opacity:0.993" fill="#d3605a" d="M 11.5,6.5 C 11.6941,8.91176 13.0274,9.91176 15.5,9.5C 16.1667,9.5 16.5,9.83333 16.5,10.5C 15.1779,10.33 14.0113,10.6634 13,11.5C 12.3724,14.748 11.2057,17.748 9.5,20.5C 10.3015,23.6369 12.3015,25.3036 15.5,25.5C 12.7458,26.6414 10.0791,27.9748 7.5,29.5C 3.82707,27.8271 1.16041,25.1604 -0.5,21.5C -0.5,17.8333 -0.5,14.1667 -0.5,10.5C 3.70261,9.72982 7.70261,8.39649 11.5,6.5 Z"/></g>
<g><path style="opacity:1" fill="#44542f" d="M 15.5,9.5 C 13.0274,9.91176 11.6941,8.91176 11.5,6.5C 13.4672,6.73943 15.3005,6.40609 17,5.5C 17.3742,6.41623 17.8742,7.24956 18.5,8C 17.2625,8.23209 16.2625,8.73209 15.5,9.5 Z"/></g>
<g><path style="opacity:1" fill="#f8fa72" d="M 16.5,10.5 C 18.1614,13.7175 19.8281,17.0509 21.5,20.5C 20.6985,23.6369 18.6985,25.3036 15.5,25.5C 12.3015,25.3036 10.3015,23.6369 9.5,20.5C 11.2057,17.748 12.3724,14.748 13,11.5C 14.0113,10.6634 15.1779,10.33 16.5,10.5 Z"/></g>
</svg>
