<?xml version="1.0" encoding="UTF-8"?>
<!DOCTYPE svg PUBLIC "-//W3C//DTD SVG 1.1//EN" "http://www.w3.org/Graphics/SVG/1.1/DTD/svg11.dtd">
<svg xmlns="http://www.w3.org/2000/svg" version="1.1" width="32px" height="32px" style="shape-rendering:geometricPrecision; text-rendering:geometricPrecision; image-rendering:optimizeQuality; fill-rule:evenodd; clip-rule:evenodd" xmlns:xlink="http://www.w3.org/1999/xlink">
<g><path style="opacity:0.973" fill="#f16c67" d="M 9.5,-0.5 C 13.5,-0.5 17.5,-0.5 21.5,-0.5C 25.8333,1.83333 29.1667,5.16667 31.5,9.5C 31.5,13.5 31.5,17.5 31.5,21.5C 29.1667,25.8333 25.8333,29.1667 21.5,31.5C 17.5,31.5 13.5,31.5 9.5,31.5C 8.83333,30.8333 8.16667,30.1667 7.5,29.5C 10.3171,28.9049 12.6505,27.5716 14.5,25.5C 17.1667,24.8333 17.1667,24.1667 14.5,23.5C 13.8333,23.5 13.5,23.1667 13.5,22.5C 14.9778,22.762 16.3112,22.4287 17.5,21.5C 17.3764,20.8933 17.0431,20.56 16.5,20.5C 19.2583,19.0335 18.925,18.3668 15.5,18.5C 17.0188,17.5902 18.6854,16.7568 20.5,16C 19.5842,15.7216 18.9175,15.2216 18.5,14.5C 19.7079,13.7659 21.0413,13.4326 22.5,13.5C 21.593,5.38724 17.593,3.05391 10.5,6.5C 6.83333,7.83333 3.16667,9.16667 -0.5,10.5C -0.5,10.1667 -0.5,9.83333 -0.5,9.5C 1.83333,5.16667 5.16667,1.83333 9.5,-0.5 Z"/></g>
<g><path style="opacity:1" fill="#fee9da" d="M 18.5,14.5 C 15.4552,14.4921 12.4552,14.1587 9.5,13.5C 8.90326,13.2648 8.56993,12.7648 8.5,12C 9.31952,10.1997 9.98619,8.36637 10.5,6.5C 17.593,3.05391 21.593,5.38724 22.5,13.5C 21.0413,13.4326 19.7079,13.7659 18.5,14.5 Z"/></g>
<g><path style="opacity:0.993" fill="#d35e5a" d="M 10.5,6.5 C 9.98619,8.36637 9.31952,10.1997 8.5,12C 8.56993,12.7648 8.90326,13.2648 9.5,13.5C 10.1098,14.391 10.4431,15.391 10.5,16.5C 11.5,18.5 12.5,20.5 13.5,22.5C 13.5,23.1667 13.8333,23.5 14.5,23.5C 14.5,24.1667 14.5,24.8333 14.5,25.5C 12.6505,27.5716 10.3171,28.9049 7.5,29.5C 3.82707,27.8271 1.16041,25.1604 -0.5,21.5C -0.5,17.8333 -0.5,14.1667 -0.5,10.5C 3.16667,9.16667 6.83333,7.83333 10.5,6.5 Z"/></g>
<g><path style="opacity:1" fill="#fcb261" d="M 9.5,13.5 C 12.4552,14.1587 15.4552,14.4921 18.5,14.5C 18.9175,15.2216 19.5842,15.7216 20.5,16C 18.6854,16.7568 17.0188,17.5902 15.5,18.5C 12.4017,18.5875 12.0684,18.0875 14.5,17C 13.2068,16.51 11.8734,16.3433 10.5,16.5C 10.4431,15.391 10.1098,14.391 9.5,13.5 Z"/></g>
<g><path style="opacity:1" fill="#f58f5a" d="M 10.5,16.5 C 11.8734,16.3433 13.2068,16.51 14.5,17C 12.0684,18.0875 12.4017,18.5875 15.5,18.5C 12.7417,19.9665 13.075,20.6332 16.5,20.5C 17.0431,20.56 17.3764,20.8933 17.5,21.5C 16.3112,22.4287 14.9778,22.762 13.5,22.5C 12.5,20.5 11.5,18.5 10.5,16.5 Z"/></g>
<g><path style="opacity:1" fill="#fdc35b" d="M 15.5,18.5 C 18.925,18.3668 19.2583,19.0335 16.5,20.5C 13.075,20.6332 12.7417,19.9665 15.5,18.5 Z"/></g>
<g><path style="opacity:1" fill="#f8ad5e" d="M 14.5,23.5 C 17.1667,24.1667 17.1667,24.8333 14.5,25.5C 14.5,24.8333 14.5,24.1667 14.5,23.5 Z"/></g>
</svg>
