<?xml version="1.0" encoding="UTF-8"?>
<!DOCTYPE svg PUBLIC "-//W3C//DTD SVG 1.1//EN" "http://www.w3.org/Graphics/SVG/1.1/DTD/svg11.dtd">
<svg xmlns="http://www.w3.org/2000/svg" version="1.1" width="32px" height="32px" style="shape-rendering:geometricPrecision; text-rendering:geometricPrecision; image-rendering:optimizeQuality; fill-rule:evenodd; clip-rule:evenodd" xmlns:xlink="http://www.w3.org/1999/xlink">
<g><path style="opacity:0.95" fill="#fec95b" d="M 9.5,-0.5 C 13.5,-0.5 17.5,-0.5 21.5,-0.5C 25.8333,1.83333 29.1667,5.16667 31.5,9.5C 31.5,13.5 31.5,17.5 31.5,21.5C 29.1667,25.8333 25.8333,29.1667 21.5,31.5C 17.5,31.5 13.5,31.5 9.5,31.5C 9.5,30.8333 9.16667,30.5 8.5,30.5C 11.4086,28.6439 14.4086,26.9773 17.5,25.5C 18.8333,25.5 20.1667,25.5 21.5,25.5C 22.0508,22.1933 22.3841,18.8599 22.5,15.5C 23.3764,15.6309 24.0431,15.2975 24.5,14.5C 23.8721,12.7419 22.8721,11.2419 21.5,10C 19.0398,9.60387 17.0398,8.4372 15.5,6.5C 14.1502,7.95012 12.4835,8.61679 10.5,8.5C 6.72075,9.55778 3.05408,10.8911 -0.5,12.5C -0.5,11.5 -0.5,10.5 -0.5,9.5C 1.83333,5.16667 5.16667,1.83333 9.5,-0.5 Z"/></g>
<g><path style="opacity:0.962" fill="#deb051" d="M 10.5,8.5 C 9.19022,10.1477 7.85689,11.8144 6.5,13.5C 6.86273,14.1835 7.19607,14.8501 7.5,15.5C 8.78681,18.698 9.45348,22.0314 9.5,25.5C 12.1667,25.5 14.8333,25.5 17.5,25.5C 14.4086,26.9773 11.4086,28.6439 8.5,30.5C 4.4722,28.4722 1.4722,25.4722 -0.5,21.5C -0.5,18.5 -0.5,15.5 -0.5,12.5C 3.05408,10.8911 6.72075,9.55778 10.5,8.5 Z"/></g>
<g><path style="opacity:1" fill="#fae2d0" d="M 22.5,15.5 C 17.5,15.5 12.5,15.5 7.5,15.5C 7.19607,14.8501 6.86273,14.1835 6.5,13.5C 7.85689,11.8144 9.19022,10.1477 10.5,8.5C 12.4835,8.61679 14.1502,7.95012 15.5,6.5C 17.0398,8.4372 19.0398,9.60387 21.5,10C 22.8721,11.2419 23.8721,12.7419 24.5,14.5C 24.0431,15.2975 23.3764,15.6309 22.5,15.5 Z"/></g>
<g><path style="opacity:1" fill="#ed3858" d="M 7.5,15.5 C 12.5,15.5 17.5,15.5 22.5,15.5C 22.3841,18.8599 22.0508,22.1933 21.5,25.5C 20.1667,25.5 18.8333,25.5 17.5,25.5C 14.8333,25.5 12.1667,25.5 9.5,25.5C 9.45348,22.0314 8.78681,18.698 7.5,15.5 Z"/></g>
</svg>
