<?xml version="1.0" encoding="UTF-8"?>
<!DOCTYPE svg PUBLIC "-//W3C//DTD SVG 1.1//EN" "http://www.w3.org/Graphics/SVG/1.1/DTD/svg11.dtd">
<svg xmlns="http://www.w3.org/2000/svg" version="1.1" width="32px" height="32px" style="shape-rendering:geometricPrecision; text-rendering:geometricPrecision; image-rendering:optimizeQuality; fill-rule:evenodd; clip-rule:evenodd" xmlns:xlink="http://www.w3.org/1999/xlink">
<g><path style="opacity:0.956" fill="#fcc85b" d="M 9.5,-0.5 C 13.5,-0.5 17.5,-0.5 21.5,-0.5C 25.8333,1.83333 29.1667,5.16667 31.5,9.5C 31.5,13.5 31.5,17.5 31.5,21.5C 29.1667,25.8333 25.8333,29.1667 21.5,31.5C 17.5,31.5 13.5,31.5 9.5,31.5C 7.65084,30.407 5.98417,29.0737 4.5,27.5C 7.68198,26.4055 10.682,25.0722 13.5,23.5C 16.617,23.3577 19.117,22.0244 21,19.5C 22.3537,15.6372 22.8537,11.6372 22.5,7.5C 17.733,7.67376 13.3996,9.0071 9.5,11.5C 6.03689,12.0991 2.70356,13.0991 -0.5,14.5C -0.5,12.8333 -0.5,11.1667 -0.5,9.5C 1.83333,5.16667 5.16667,1.83333 9.5,-0.5 Z"/></g>
<g><path style="opacity:1" fill="#266733" d="M 13.5,23.5 C 11.5479,22.7681 9.88124,22.7681 8.5,23.5C 8.40876,19.527 8.74209,15.527 9.5,11.5C 13.3996,9.0071 17.733,7.67376 22.5,7.5C 22.8537,11.6372 22.3537,15.6372 21,19.5C 19.117,22.0244 16.617,23.3577 13.5,23.5 Z"/></g>
<g><path style="opacity:0.963" fill="#daaf4f" d="M 9.5,11.5 C 8.74209,15.527 8.40876,19.527 8.5,23.5C 9.88124,22.7681 11.5479,22.7681 13.5,23.5C 10.682,25.0722 7.68198,26.4055 4.5,27.5C 2.35665,25.8693 0.689986,23.8693 -0.5,21.5C -0.5,19.1667 -0.5,16.8333 -0.5,14.5C 2.70356,13.0991 6.03689,12.0991 9.5,11.5 Z"/></g>
</svg>
