<?xml version="1.0" encoding="UTF-8"?>
<!DOCTYPE svg PUBLIC "-//W3C//DTD SVG 1.1//EN" "http://www.w3.org/Graphics/SVG/1.1/DTD/svg11.dtd">
<svg xmlns="http://www.w3.org/2000/svg" version="1.1" width="32px" height="32px" style="shape-rendering:geometricPrecision; text-rendering:geometricPrecision; image-rendering:optimizeQuality; fill-rule:evenodd; clip-rule:evenodd" xmlns:xlink="http://www.w3.org/1999/xlink">
<g><path style="opacity:0.96" fill="#80c4d6" d="M 9.5,-0.5 C 13.5,-0.5 17.5,-0.5 21.5,-0.5C 25.8333,1.83333 29.1667,5.16667 31.5,9.5C 31.5,13.5 31.5,17.5 31.5,21.5C 29.1667,25.8333 25.8333,29.1667 21.5,31.5C 17.5,31.5 13.5,31.5 9.5,31.5C 8.83333,30.8333 8.16667,30.1667 7.5,29.5C 10.682,28.4055 13.682,27.0722 16.5,25.5C 19.1667,20.8333 21.8333,16.1667 24.5,11.5C 25.5735,10.7494 25.7401,9.74943 25,8.5C 18.4858,5.86114 11.9858,5.86114 5.5,8.5C 3.70281,9.72976 1.70281,10.3964 -0.5,10.5C -0.5,10.1667 -0.5,9.83333 -0.5,9.5C 1.83333,5.16667 5.16667,1.83333 9.5,-0.5 Z"/></g>
<g><path style="opacity:1" fill="#ee756a" d="M 24.5,11.5 C 18.4896,8.90519 12.4896,8.90519 6.5,11.5C 5.59603,10.791 5.26269,9.79105 5.5,8.5C 11.9858,5.86114 18.4858,5.86114 25,8.5C 25.7401,9.74943 25.5735,10.7494 24.5,11.5 Z"/></g>
<g><path style="opacity:0.965" fill="#71acbb" d="M 5.5,8.5 C 5.26269,9.79105 5.59603,10.791 6.5,11.5C 8.88636,16.9767 12.2197,21.6433 16.5,25.5C 13.682,27.0722 10.682,28.4055 7.5,29.5C 3.82707,27.8271 1.16041,25.1604 -0.5,21.5C -0.5,17.8333 -0.5,14.1667 -0.5,10.5C 1.70281,10.3964 3.70281,9.72976 5.5,8.5 Z"/></g>
<g><path style="opacity:1" fill="#f6c25f" d="M 24.5,11.5 C 21.8333,16.1667 19.1667,20.8333 16.5,25.5C 12.2197,21.6433 8.88636,16.9767 6.5,11.5C 12.4896,8.90519 18.4896,8.90519 24.5,11.5 Z"/></g>
<g><path style="opacity:1" fill="#afc055" d="M 16.5,15.5 C 19.8606,16.2032 20.1939,17.5365 17.5,19.5C 15.3576,18.5629 15.0243,17.2296 16.5,15.5 Z"/></g>
</svg>
