<?xml version="1.0" encoding="UTF-8"?>
<!DOCTYPE svg PUBLIC "-//W3C//DTD SVG 1.1//EN" "http://www.w3.org/Graphics/SVG/1.1/DTD/svg11.dtd">
<svg xmlns="http://www.w3.org/2000/svg" version="1.1" width="32px" height="32px" style="shape-rendering:geometricPrecision; text-rendering:geometricPrecision; image-rendering:optimizeQuality; fill-rule:evenodd; clip-rule:evenodd" xmlns:xlink="http://www.w3.org/1999/xlink">
<g><path style="opacity:0.972" fill="#ee6a66" d="M 9.5,-0.5 C 13.5,-0.5 17.5,-0.5 21.5,-0.5C 25.8333,1.83333 29.1667,5.16667 31.5,9.5C 31.5,13.5 31.5,17.5 31.5,21.5C 29.1667,25.8333 25.8333,29.1667 21.5,31.5C 17.5,31.5 13.5,31.5 9.5,31.5C 8.70951,30.5987 7.70951,29.9321 6.5,29.5C 9.33883,27.5797 12.3388,25.9131 15.5,24.5C 21.3105,23.6897 24.3105,20.3564 24.5,14.5C 23.5,14.5 22.5,14.5 21.5,14.5C 21.8333,13.1667 22.1667,11.8333 22.5,10.5C 21.2719,11.3065 20.2719,12.3065 19.5,13.5C 20.0138,11.4884 20.1805,9.48838 20,7.5C 18.8638,9.743 18.0305,12.0763 17.5,14.5C 17.1667,14.5 16.8333,14.5 16.5,14.5C 15.7396,11.0401 14.2396,10.7068 12,13.5C 10.9158,11.2177 9.41582,10.8843 7.5,12.5C 4.83333,13.1667 2.16667,13.8333 -0.5,14.5C -0.5,12.8333 -0.5,11.1667 -0.5,9.5C 1.83333,5.16667 5.16667,1.83333 9.5,-0.5 Z"/></g>
<g><path style="opacity:1" fill="#8d8a81" d="M 22.5,10.5 C 22.4614,9.24382 22.9614,8.24382 24,7.5C 24.5847,8.99762 24.0847,9.99762 22.5,10.5 Z"/></g>
<g><path style="opacity:1" fill="#89847c" d="M 19.5,13.5 C 18.8333,13.8333 18.1667,14.1667 17.5,14.5C 18.0305,12.0763 18.8638,9.743 20,7.5C 20.1805,9.48838 20.0138,11.4884 19.5,13.5 Z"/></g>
<g><path style="opacity:1" fill="#90887f" d="M 22.5,10.5 C 22.1667,11.8333 21.8333,13.1667 21.5,14.5C 20.8333,14.5 20.1667,14.5 19.5,14.5C 19.5,14.1667 19.5,13.8333 19.5,13.5C 20.2719,12.3065 21.2719,11.3065 22.5,10.5 Z"/></g>
<g><path style="opacity:0.991" fill="#d46059" d="M 7.5,12.5 C 7.5,13.1667 7.5,13.8333 7.5,14.5C 7.5,14.8333 7.5,15.1667 7.5,15.5C 6.40168,16.6009 6.23502,17.9343 7,19.5C 9.02869,22.5956 11.862,24.2623 15.5,24.5C 12.3388,25.9131 9.33883,27.5797 6.5,29.5C 3.42088,27.4251 1.08754,24.7584 -0.5,21.5C -0.5,19.1667 -0.5,16.8333 -0.5,14.5C 2.16667,13.8333 4.83333,13.1667 7.5,12.5 Z"/></g>
<g><path style="opacity:1" fill="#543921" d="M 16.5,14.5 C 13.5,14.5 10.5,14.5 7.5,14.5C 7.5,13.8333 7.5,13.1667 7.5,12.5C 9.41582,10.8843 10.9158,11.2177 12,13.5C 14.2396,10.7068 15.7396,11.0401 16.5,14.5 Z"/></g>
<g><path style="opacity:1" fill="#b98b49" d="M 19.5,13.5 C 19.5,13.8333 19.5,14.1667 19.5,14.5C 15.7016,15.4834 11.7016,15.8168 7.5,15.5C 7.5,15.1667 7.5,14.8333 7.5,14.5C 10.5,14.5 13.5,14.5 16.5,14.5C 16.8333,14.5 17.1667,14.5 17.5,14.5C 18.1667,14.1667 18.8333,13.8333 19.5,13.5 Z"/></g>
<g><path style="opacity:1" fill="#fdc55c" d="M 19.5,14.5 C 20.1667,14.5 20.8333,14.5 21.5,14.5C 22.5,14.5 23.5,14.5 24.5,14.5C 24.3105,20.3564 21.3105,23.6897 15.5,24.5C 11.862,24.2623 9.02869,22.5956 7,19.5C 6.23502,17.9343 6.40168,16.6009 7.5,15.5C 11.7016,15.8168 15.7016,15.4834 19.5,14.5 Z"/></g>
</svg>
