<?xml version="1.0" encoding="utf-8"?>
<svg xmlns="http://www.w3.org/2000/svg" version="1.1" width="512px" height="512px" style="shape-rendering:geometricPrecision; text-rendering:geometricPrecision; image-rendering:optimizeQuality; fill-rule:evenodd; clip-rule:evenodd" xmlns:bx="https://boxy-svg.com">
  <defs>
    <linearGradient id="color-0" bx:pinned="true" gradientUnits="userSpaceOnUse">
      <stop style="stop-color: color(a98-rgb 0.328 0.189 0.429);"/>
    </linearGradient>
  </defs>
  <g>
    <path style="opacity: 0.974; fill: rgb(255, 255, 255);" d="M 12.5,-0.5 C 56.5,-0.5 100.5,-0.5 144.5,-0.5C 151.21,2.38267 155.71,7.38267 158,14.5C 158.667,86.8333 158.667,159.167 158,231.5C 156.194,239.973 151.027,245.14 142.5,247C 100.167,247.667 57.8333,247.667 15.5,247C 7.82552,245.151 2.49218,240.651 -0.5,233.5C -0.5,215.167 -0.5,196.833 -0.5,178.5C 1.01439,175.905 3.34772,174.571 6.5,174.5C 10.0897,174.544 12.5897,176.211 14,179.5C 14.3333,196.167 14.6667,212.833 15,229.5C 15.5,230 16,230.5 16.5,231C 51.4984,231.5 86.4984,231.667 121.5,231.5C 127.842,231.666 134.175,231.5 140.5,231C 141,230.5 141.5,230 142,229.5C 142.667,158.5 142.667,87.5 142,16.5C 141.5,16 141,15.5 140.5,15C 134.175,14.5005 127.842,14.3338 121.5,14.5C 86.4984,14.3333 51.4984,14.5 16.5,15C 16,15.5 15.5,16 15,16.5C 14.6667,60.8333 14.3333,105.167 14,149.5C 12.5897,152.789 10.0897,154.456 6.5,154.5C 3.54661,154.85 1.21328,153.85 -0.5,151.5C -0.5,105.167 -0.5,58.8333 -0.5,12.5C 2.16667,6.5 6.5,2.16667 12.5,-0.5 Z"/>
  </g>
  <g>
    <path style="opacity: 0.957; fill: rgb(245, 245, 245);" d="M 189.5,-0.5 C 233.5,-0.5 277.5,-0.5 321.5,-0.5C 329.103,2.61256 333.603,8.27922 335,16.5C 335.987,89.2107 335.654,161.877 334,234.5C 330.904,241.266 325.737,245.432 318.5,247C 276.5,247.667 234.5,247.667 192.5,247C 185.263,245.432 180.096,241.266 177,234.5C 175.346,161.544 175.013,88.544 176,15.5C 177.849,7.82552 182.349,2.49218 189.5,-0.5 Z"/>
  </g>
  <g>
    <path style="opacity: 0.974; fill: rgb(255, 255, 255);" d="M 366.5,-0.5 C 410.5,-0.5 454.5,-0.5 498.5,-0.5C 504.5,2.16667 508.833,6.5 511.5,12.5C 511.5,35.5 511.5,58.5 511.5,81.5C 509.628,83.6037 507.295,84.937 504.5,85.5C 501.042,84.8923 498.542,82.8923 497,79.5C 496.667,58.5 496.333,37.5 496,16.5C 495.25,15.8742 494.416,15.3742 493.5,15C 487.509,14.5005 481.509,14.3338 475.5,14.5C 440.498,14.3333 405.498,14.5 370.5,15C 370,15.5 369.5,16 369,16.5C 368.167,87.8357 368.333,159.169 369.5,230.5C 404.79,231.493 440.123,231.827 475.5,231.5C 481.842,231.666 488.175,231.5 494.5,231C 495,230.5 495.5,230 496,229.5C 496.333,189.5 496.667,149.5 497,109.5C 498.836,106.676 501.336,105.01 504.5,104.5C 507.326,104.998 509.66,106.331 511.5,108.5C 511.5,150.167 511.5,191.833 511.5,233.5C 508.508,240.651 503.174,245.151 495.5,247C 453.167,247.667 410.833,247.667 368.5,247C 359.973,245.14 354.806,239.973 353,231.5C 352.333,159.167 352.333,86.8333 353,14.5C 355.29,7.38267 359.79,2.38267 366.5,-0.5 Z"/>
  </g>
  <g>
    <path style="opacity: 1;" d="M 246.5,67.5 C 273.348,65.5228 286.848,77.8562 287,104.5C 283.992,118.007 275.825,126.341 262.5,129.5C 262.904,135.29 262.404,140.956 261,146.5C 255.631,149.774 251.298,148.774 248,143.5C 247.333,136.167 247.333,128.833 248,121.5C 249.122,119.376 250.622,117.543 252.5,116C 266.709,115.719 273.209,108.552 272,94.5C 267.902,84.2334 260.402,80.4 249.5,83C 246.438,84.0608 243.938,85.8941 242,88.5C 239.791,92.4993 237.958,96.666 236.5,101C 227.457,104.292 223.29,101.126 224,91.5C 227.956,80.0477 235.456,72.0477 246.5,67.5 Z"/>
  </g>
  <g>
    <path style="opacity: 1; fill: rgb(255, 255, 255);" d="M 57.5,97.5 C 60.5184,97.3354 63.5184,97.502 66.5,98C 70.6845,100.197 74.8512,102.364 79,104.5C 83.0515,102.796 86.8849,100.629 90.5,98C 104.98,96.6395 111.48,103.14 110,117.5C 109,119.5 108,121.5 107,123.5C 99.1667,131.333 91.3333,139.167 83.5,147C 80.9699,148.422 78.3033,148.755 75.5,148C 66.2792,139.446 57.4459,130.613 49,121.5C 44.3982,110.803 47.2315,102.803 57.5,97.5 Z"/>
  </g>
  <g>
    <path style="opacity: 1; fill: rgb(255, 255, 255);" d="M 415.5,102.5 C 426.838,102.333 438.172,102.5 449.5,103C 453.349,106.682 457.016,110.515 460.5,114.5C 451.472,124.362 441.972,133.695 432,142.5C 422.028,133.695 412.528,124.362 403.5,114.5C 407.854,110.812 411.854,106.812 415.5,102.5 Z"/>
  </g>
  <g>
    <path style="opacity: 1;" d="M 252.5,164.5 C 260.775,163.706 263.942,167.373 262,175.5C 257.585,180.726 253.251,180.726 249,175.5C 247.663,170.872 248.83,167.205 252.5,164.5 Z"/>
  </g>
  <g>
    <path style="opacity: 0.976; fill: rgb(255, 255, 255);" d="M 144.5,511.5 C 100.5,511.5 56.5,511.5 12.5,511.5C 6.5,508.833 2.16667,504.5 -0.5,498.5C -0.5,424.833 -0.5,351.167 -0.5,277.5C 2.49218,270.349 7.82552,265.849 15.5,264C 57.8333,263.333 100.167,263.333 142.5,264C 151,265.833 156.167,271 158,279.5C 158.667,351.833 158.667,424.167 158,496.5C 155.71,503.617 151.21,508.617 144.5,511.5 Z"/>
  </g>
  <g>
    <path style="opacity: 0.956; fill: rgb(255, 255, 255);" d="M 321.5,511.5 C 277.5,511.5 233.5,511.5 189.5,511.5C 182.349,508.508 177.849,503.174 176,495.5C 175.333,461.167 175.333,426.833 176,392.5C 177.256,388.954 179.756,386.954 183.5,386.5C 186.958,387.108 189.458,389.108 191,392.5C 191.333,426.5 191.667,460.5 192,494.5C 192.5,495 193,495.5 193.5,496C 228.498,496.5 263.498,496.667 298.5,496.5C 304.842,496.666 311.175,496.5 317.5,496C 318,495.5 318.5,495 319,494.5C 319.667,423.5 319.667,352.5 319,281.5C 318.5,281 318,280.5 317.5,280C 311.175,279.5 304.842,279.334 298.5,279.5C 263.498,279.333 228.498,279.5 193.5,280C 193,280.5 192.5,281 192,281.5C 191.667,308.167 191.333,334.833 191,361.5C 189.458,364.892 186.958,366.892 183.5,367.5C 179.363,367.518 176.863,365.518 176,361.5C 175.333,334.5 175.333,307.5 176,280.5C 178.167,271.667 183.667,266.167 192.5,264C 234.5,263.333 276.5,263.333 318.5,264C 327.333,266.167 332.833,271.667 335,280.5C 335.667,351.833 335.667,423.167 335,494.5C 333.603,502.721 329.103,508.387 321.5,511.5 Z"/>
    <path style="opacity: 0.956; stroke-width: 1; fill: rgb(255, 255, 255);" d="M 498.001 510.417 C 454.001 510.417 410.001 510.417 366.001 510.417 C 358.85 507.425 354.35 502.091 352.501 494.417 C 351.834 460.084 351.834 425.75 352.501 391.417 C 353.757 387.871 356.257 385.871 360.001 385.417 C 363.459 386.025 365.959 388.025 367.501 391.417 C 367.834 425.417 368.168 459.417 368.501 493.417 C 369.001 493.917 369.501 494.417 370.001 494.917 C 404.999 495.417 439.999 495.584 475.001 495.417 C 481.343 495.583 487.676 495.417 494.001 494.917 C 494.501 494.417 495.001 493.917 495.501 493.417 C 496.168 422.417 496.168 351.417 495.501 280.417 C 495.001 279.917 494.501 279.417 494.001 278.917 C 487.676 278.417 481.343 278.251 475.001 278.417 C 439.999 278.25 404.999 278.417 370.001 278.917 C 369.501 279.417 369.001 279.917 368.501 280.417 C 368.168 307.084 367.834 333.75 367.501 360.417 C 365.959 363.809 363.459 365.809 360.001 366.417 C 355.864 366.435 353.364 364.435 352.501 360.417 C 351.834 333.417 351.834 306.417 352.501 279.417 C 354.668 270.584 360.168 265.084 369.001 262.917 C 411.001 262.25 453.001 262.25 495.001 262.917 C 503.834 265.084 509.334 270.584 511.501 279.417 C 512.168 350.75 512.168 422.084 511.501 493.417 C 510.104 501.638 505.604 507.304 498.001 510.417 Z"/>
  </g>
  <g>
    <path style="opacity: 1;" d="M 72.5,331.5 C 89.963,330.305 102.13,337.639 109,353.5C 112.93,373.311 105.597,386.977 87,394.5C 86.6667,398.833 86.3333,403.167 86,407.5C 82.0769,414.423 77.4102,415.09 72,409.5C 71.3333,401.167 71.3333,392.833 72,384.5C 72.8333,383 74,381.833 75.5,381C 92.3101,379.217 98.1434,370.384 93,354.5C 83.9683,344.285 74.635,343.951 65,353.5C 62.7536,357.234 61.087,361.234 60,365.5C 52.4823,369.493 48.3156,367.326 47.5,359C 50.4233,344.91 58.7566,335.744 72.5,331.5 Z"/>
  </g>
  <g>
    <path style="opacity: 1; fill: rgb(255, 255, 255);" d="M 233.5,362.5 C 240.512,361.288 246.512,363.121 251.5,368C 253.833,368.667 256.167,368.667 258.5,368C 266.904,360.874 275.404,360.707 284,367.5C 287.706,372.815 288.373,378.482 286,384.5C 277.197,394.304 268.03,403.804 258.5,413C 256.5,413.667 254.5,413.667 252.5,413C 242.97,403.804 233.803,394.304 225,384.5C 221.665,374.657 224.499,367.324 233.5,362.5 Z"/>
  </g>
  <g>
    <path style="opacity: 1; fill: rgb(255, 255, 255);" d="M 414.5,367.5 C 426.171,367.333 437.838,367.5 449.5,368C 453.349,371.682 457.016,375.515 460.5,379.5C 451.5,389.167 442.167,398.5 432.5,407.5C 422.681,398.181 413.014,388.681 403.5,379C 407.37,375.298 411.037,371.464 414.5,367.5 Z"/>
  </g>
  <g>
    <path style="opacity: 1;" d="M 75.5,429.5 C 81.5228,428.197 85.1895,430.53 86.5,436.5C 84.1716,443.726 79.6716,445.393 73,441.5C 70.5226,436.669 71.356,432.669 75.5,429.5 Z"/>
  </g>
</svg>