<svg width="120" height="121" viewBox="0 0 120 121" fill="none" xmlns="http://www.w3.org/2000/svg">
<g clip-path="url(#clip0_82_50)">
<path opacity="0.949" fill-rule="evenodd" clip-rule="evenodd" d="M119.883 65.5418C119.883 68.6667 119.883 71.7919 119.883 74.9168C119.064 82.8813 116.408 90.1861 111.914 96.8309C110.375 97.7238 109.086 97.4503 108.047 96.0106C107.891 95.3074 107.891 94.6043 108.047 93.9012C115.477 81.9574 116.961 69.3012 112.5 55.9324C106.391 40.6847 95.2582 31.5049 79.1016 28.3934C62.1117 26.4424 48.4008 32.1846 37.9688 45.6199C29.2022 58.7236 27.7179 72.6298 33.5156 87.3387C41.4026 103.574 54.4104 112.089 72.5391 112.886C77.9527 112.869 83.187 111.892 88.2422 109.956C91.2326 108.597 94.1623 107.152 97.0312 105.62C99.0251 105.975 99.8063 107.146 99.375 109.136C99.191 109.554 98.9177 109.906 98.5547 110.19C84.386 118.821 69.5423 120.15 54.0234 114.175C41.8132 108.8 33.2194 99.9333 28.2422 87.5731C22.4625 87.3778 16.6813 87.2606 10.8984 87.2215C9.36173 86.5922 8.85391 85.4592 9.375 83.8231C9.64845 83.2371 10.0781 82.8075 10.6641 82.534C15.9783 82.4949 21.2908 82.3777 26.6016 82.1824C25.8713 79.3355 25.4025 76.4449 25.1953 73.5106C21.3664 73.5497 17.5383 73.5106 13.7109 73.3934C12.5919 72.5367 12.2404 71.404 12.6562 69.9949C12.9297 69.5653 13.2813 69.2138 13.7109 68.9403C17.5383 68.8231 21.3664 68.7839 25.1953 68.8231C25.2848 65.8296 25.5973 62.8608 26.1328 59.9168C17.8512 59.956 9.56995 59.9168 1.28906 59.7996C0.697826 59.4809 0.229076 59.0513 -0.117188 58.5106C-0.117188 57.8074 -0.117188 57.1043 -0.117188 56.4012C0.245161 55.7684 0.792035 55.3388 1.52344 55.1121C10.2731 54.9949 19.0231 54.9558 27.7734 54.9949C28.6371 52.0172 29.887 49.2047 31.5234 46.5574C26.6698 46.4295 21.826 46.2342 16.9922 45.9715C15.7711 45.0059 15.4976 43.7951 16.1719 42.3387C16.4564 41.9756 16.808 41.7024 17.2266 41.5184C23.1641 41.4403 29.1016 41.362 35.0391 41.284C41.952 32.5123 50.8582 26.8092 61.7578 24.1746C62.0269 22.2791 62.066 20.365 61.875 18.4324C57.2576 16.6205 55.3826 13.2611 56.25 8.35431C57.2489 5.40219 59.2411 3.48815 62.2266 2.61212C69.0234 2.45587 75.8203 2.45587 82.6172 2.61212C87.431 4.07226 89.5013 7.31444 88.8281 12.3387C88.1231 15.5045 86.209 17.4576 83.0859 18.1981C83.0116 20.2102 83.0899 22.2024 83.3203 24.1746C99.4828 28.305 110.694 38.1099 116.953 53.5887C118.342 57.5049 119.319 61.4892 119.883 65.5418ZM63.1641 7.41681C69.4146 7.37776 75.6645 7.41681 81.9141 7.534C83.6716 8.35417 84.3359 9.72135 83.9062 11.6356C83.3637 12.6473 82.5434 13.3114 81.4453 13.6277C75.4296 13.784 69.4141 13.784 63.3984 13.6277C61.1395 12.6666 60.4753 11.065 61.4062 8.82306C61.9017 8.20881 62.4877 7.74006 63.1641 7.41681ZM66.9141 18.6668C70.6641 18.6668 74.4141 18.6668 78.1641 18.6668C78.2414 20.2371 78.1634 21.7996 77.9297 23.3543C74.336 22.7293 70.7421 22.7293 67.1484 23.3543C66.9148 21.7996 66.8367 20.2371 66.9141 18.6668ZM72.0703 67.8856C74.6377 68.2139 75.458 69.5421 74.5312 71.8699C73.5469 72.8576 72.4139 73.0531 71.1328 72.4559C69.5245 70.5654 69.8372 69.042 72.0703 67.8856Z" fill="white"/>
<path opacity="0.944" fill-rule="evenodd" clip-rule="evenodd" d="M69.9609 33.9012C84.8104 33.4922 96.1776 39.5079 104.062 51.9481C110.872 64.6179 110.716 77.1959 103.594 89.6824C95.2417 102.08 83.5621 107.745 68.5546 106.675C53.3134 104.348 43.0401 95.9494 37.7343 81.4793C33.5967 65.8491 37.5419 52.6849 49.5702 41.9871C55.578 37.2895 62.3749 34.5942 69.9609 33.9012ZM70.1952 38.8231C83.2931 38.5535 93.254 43.9441 100.078 54.9949C106.128 67.0861 105.268 78.6488 97.4999 89.6824C87.2917 101.444 74.8307 104.686 60.1171 99.409C48.0646 93.555 41.6584 83.9065 40.8984 70.4637C41.7618 55.6397 49.1057 45.6005 62.9296 40.3465C65.3427 39.6375 67.7645 39.1299 70.1952 38.8231ZM72.0702 67.8856C69.8371 69.042 69.5245 70.5654 71.1327 72.4559C72.4138 73.0531 73.5468 72.8576 74.5312 71.8699C75.4579 69.5421 74.6376 68.2139 72.0702 67.8856Z" fill="white"/>
<path opacity="0.91" fill-rule="evenodd" clip-rule="evenodd" d="M72.0704 42.8074C74.3703 42.9063 75.3861 44.1174 75.1172 46.4402C75.2862 49.2431 74.0361 50.337 71.3672 49.7215C70.9376 49.448 70.5861 49.0964 70.3126 48.6668C70.1562 47.1825 70.1562 45.698 70.3126 44.2137C70.8069 43.5992 71.3928 43.1304 72.0704 42.8074Z" fill="white"/>
<path opacity="0.945" fill-rule="evenodd" clip-rule="evenodd" d="M88.2421 51.4793C90.8563 51.4744 91.8327 52.7246 91.1718 55.2293C87.2654 59.1357 83.3594 63.0417 79.453 66.9481C80.3692 69.7355 80.0568 72.3919 78.5155 74.9168C75.3079 78.1512 71.7531 78.581 67.8515 76.2059C66.1607 74.621 65.2232 72.668 65.039 70.3465C65.2581 69.2002 65.4533 68.0674 65.6249 66.9481C63.9062 65.2294 62.1873 63.5105 60.4686 61.7918C59.5211 59.6243 60.1851 58.2961 62.4608 57.8074C63.0332 57.9331 63.58 58.1283 64.1015 58.3934C65.8626 60.1936 67.6595 61.9514 69.4921 63.6668C71.5234 62.7293 73.5545 62.7293 75.5858 63.6668C79.7446 59.5076 83.9633 55.4449 88.2421 51.4793ZM72.0702 67.8856C69.8371 69.042 69.5244 70.5654 71.1327 72.4559C72.4138 73.0531 73.5468 72.8576 74.5311 71.8699C75.4579 69.5421 74.6376 68.2139 72.0702 67.8856Z" fill="white"/>
<path opacity="0.913" fill-rule="evenodd" clip-rule="evenodd" d="M46.7577 67.8856C48.1858 67.8009 49.592 67.9181 50.9765 68.2371C52.6265 69.9091 52.4704 71.3937 50.5077 72.6902C48.9974 72.9047 47.5131 72.8264 46.0546 72.4559C45.1736 71.5786 44.9001 70.5239 45.2343 69.2918C45.5844 68.6323 46.0921 68.1635 46.7577 67.8856Z" fill="white"/>
<path opacity="0.916" fill-rule="evenodd" clip-rule="evenodd" d="M95.0392 67.8855C96.5291 67.7348 97.9353 67.9692 99.2579 68.5887C100.051 69.5899 100.168 70.6835 99.6095 71.8699C99.3249 72.233 98.9734 72.5062 98.5548 72.6902C96.9667 72.9059 95.4041 72.8276 93.8673 72.4559C92.375 70.4264 92.7655 68.903 95.0392 67.8855Z" fill="white"/>
<path opacity="0.899" fill-rule="evenodd" clip-rule="evenodd" d="M-0.117188 85.9324C-0.117188 85.2293 -0.117188 84.5262 -0.117188 83.8231C1.15094 82.1735 2.59624 82.0172 4.21875 83.3543C5.0985 86.4588 3.96567 87.6696 0.820312 86.9871C0.452285 86.6597 0.139784 86.3081 -0.117188 85.9324Z" fill="white"/>
<path opacity="0.911" fill-rule="evenodd" clip-rule="evenodd" d="M71.6016 90.8543C73.0289 90.5349 74.0836 91.0036 74.7656 92.2606C74.922 93.6668 74.922 95.0731 74.7656 96.4793C74.0815 97.7742 73.0268 98.2038 71.6016 97.7684C71.1037 97.5054 70.6741 97.1538 70.3125 96.7137C69.8438 95.1511 69.8438 93.5888 70.3125 92.0262C70.718 91.5804 71.1476 91.1897 71.6016 90.8543Z" fill="white"/>
<path opacity="0.879" fill-rule="evenodd" clip-rule="evenodd" d="M103.477 99.7606C106.661 99.8417 107.52 101.287 106.055 104.096C103.841 105.255 102.435 104.63 101.836 102.221C101.97 101.113 102.517 100.293 103.477 99.7606Z" fill="white"/>
</g>
<defs>
<clipPath id="clip0_82_50">
<rect width="120" height="120" fill="white" transform="translate(0 0.268372)"/>
</clipPath>
</defs>
</svg>
