<?xml version="1.0" encoding="utf-8"?>
<svg xmlns="http://www.w3.org/2000/svg" version="1.1" width="512px" height="512px" style="shape-rendering:geometricPrecision; text-rendering:geometricPrecision; image-rendering:optimizeQuality; fill-rule:evenodd; clip-rule:evenodd">
  <g>
    <path style="opacity: 0.949; fill: rgb(255, 255, 255);" d="M 511.5,278.5 C 511.5,291.833 511.5,305.167 511.5,318.5C 508.005,352.482 496.672,383.649 477.5,412C 470.932,415.81 465.432,414.643 461,408.5C 460.333,405.5 460.333,402.5 461,399.5C 492.7,348.54 499.033,294.54 480,237.5C 453.935,172.443 406.435,133.276 337.5,120C 265.01,111.676 206.51,136.176 162,193.5C 124.596,249.409 118.263,308.742 143,371.5C 176.651,440.769 232.151,477.102 309.5,480.5C 332.598,480.428 354.931,476.261 376.5,468C 389.259,462.203 401.759,456.037 414,449.5C 422.507,451.013 425.84,456.013 424,464.5C 423.215,466.286 422.049,467.786 420.5,469C 360.047,505.826 296.714,511.493 230.5,486C 178.403,463.07 141.736,425.237 120.5,372.5C 95.8401,371.667 71.1734,371.167 46.5,371C 39.9434,368.315 37.7767,363.481 40,356.5C 41.1667,354 43,352.167 45.5,351C 68.174,350.833 90.8407,350.333 113.5,349.5C 110.384,337.353 108.384,325.02 107.5,312.5C 91.1633,312.667 74.8299,312.5 58.5,312C 53.7255,308.345 52.2255,303.512 54,297.5C 55.1667,295.667 56.6667,294.167 58.5,293C 74.8299,292.5 91.1633,292.333 107.5,292.5C 107.882,279.728 109.215,267.061 111.5,254.5C 76.1651,254.667 40.8318,254.5 5.5,254C 2.97739,252.64 0.977392,250.807 -0.5,248.5C -0.5,245.5 -0.5,242.5 -0.5,239.5C 1.04602,236.8 3.37935,234.967 6.5,234C 43.8318,233.5 81.1652,233.333 118.5,233.5C 122.185,220.795 127.518,208.795 134.5,197.5C 113.791,196.954 93.1243,196.121 72.5,195C 67.29,190.88 66.1233,185.714 69,179.5C 70.214,177.951 71.714,176.785 73.5,176C 98.8333,175.667 124.167,175.333 149.5,175C 178.995,137.574 216.995,113.241 263.5,102C 264.648,93.9124 264.815,85.7457 264,77.5C 244.299,69.7691 236.299,55.4358 240,34.5C 244.262,21.9043 252.762,13.7377 265.5,10C 294.5,9.33333 323.5,9.33333 352.5,10C 373.039,16.2299 381.872,30.0632 379,51.5C 375.992,65.0074 367.825,73.3407 354.5,76.5C 354.183,85.0851 354.517,93.5851 355.5,102C 424.46,119.623 472.293,161.457 499,227.5C 504.928,244.209 509.095,261.209 511.5,278.5 Z M 269.5,30.5 C 296.169,30.3334 322.835,30.5 349.5,31C 356.999,34.4994 359.833,40.3327 358,48.5C 355.685,52.8168 352.185,55.6502 347.5,57C 321.833,57.6667 296.167,57.6667 270.5,57C 260.862,52.899 258.028,46.0656 262,36.5C 264.114,33.8792 266.614,31.8792 269.5,30.5 Z M 285.5,78.5 C 301.5,78.5 317.5,78.5 333.5,78.5C 333.83,85.1998 333.497,91.8665 332.5,98.5C 317.167,95.8333 301.833,95.8333 286.5,98.5C 285.503,91.8665 285.17,85.1998 285.5,78.5 Z M 307.5,288.5 C 318.454,289.901 321.954,295.568 318,305.5C 313.8,309.714 308.966,310.548 303.5,308C 296.638,299.934 297.972,293.434 307.5,288.5 Z"/>
  </g>
  <g>
    <path style="opacity: 0.944; fill: rgb(255, 255, 255);" d="M 298.5,143.5 C 361.858,141.755 410.358,167.422 444,220.5C 473.054,274.558 472.387,328.224 442,381.5C 406.365,434.398 356.532,458.565 292.5,454C 227.471,444.072 183.638,408.239 161,346.5C 143.346,279.811 160.179,223.644 211.5,178C 237.133,157.957 266.133,146.457 298.5,143.5 Z M 299.5,164.5 C 355.384,163.35 397.884,186.35 427,233.5C 452.812,285.089 449.145,334.423 416,381.5C 372.445,431.682 319.278,445.515 256.5,423C 205.076,398.023 177.743,356.856 174.5,299.5C 178.184,236.251 209.518,193.417 268.5,171C 278.796,167.975 289.129,165.809 299.5,164.5 Z M 307.5,288.5 C 297.972,293.434 296.638,299.934 303.5,308C 308.966,310.548 313.8,309.714 318,305.5C 321.954,295.568 318.454,289.901 307.5,288.5 Z"/>
  </g>
  <g>
    <path style="opacity: 0.91; fill: rgb(255, 255, 255);" d="M 307.5,181.5 C 317.313,181.922 321.647,187.089 320.5,197C 321.221,208.959 315.887,213.626 304.5,211C 302.667,209.833 301.167,208.333 300,206.5C 299.333,200.167 299.333,193.833 300,187.5C 302.109,184.878 304.609,182.878 307.5,181.5 Z"/>
  </g>
  <g>
    <path style="opacity: 0.945; fill: rgb(255, 255, 255);" d="M 376.5,218.5 C 387.654,218.479 391.82,223.813 389,234.5C 372.333,251.167 355.667,267.833 339,284.5C 342.909,296.393 341.576,307.727 335,318.5C 321.314,332.3 306.147,334.134 289.5,324C 282.286,317.238 278.286,308.905 277.5,299C 278.435,294.109 279.268,289.276 280,284.5C 272.667,277.167 265.333,269.833 258,262.5C 253.957,253.252 256.79,247.585 266.5,245.5C 268.942,246.036 271.275,246.869 273.5,248C 281.014,255.681 288.681,263.181 296.5,270.5C 305.167,266.5 313.833,266.5 322.5,270.5C 340.244,252.754 358.244,235.42 376.5,218.5 Z M 307.5,288.5 C 297.972,293.434 296.638,299.934 303.5,308C 308.966,310.548 313.8,309.714 318,305.5C 321.954,295.568 318.454,289.901 307.5,288.5 Z"/>
  </g>
  <g>
    <path style="opacity: 0.913; fill: rgb(255, 255, 255);" d="M 199.5,288.5 C 205.593,288.139 211.593,288.639 217.5,290C 224.54,297.134 223.874,303.468 215.5,309C 209.056,309.915 202.723,309.581 196.5,308C 192.741,304.257 191.574,299.757 193,294.5C 194.494,291.686 196.66,289.686 199.5,288.5 Z"/>
  </g>
  <g>
    <path style="opacity: 0.916; fill: rgb(255, 255, 255);" d="M 405.5,288.5 C 411.857,287.857 417.857,288.857 423.5,291.5C 426.882,295.772 427.382,300.438 425,305.5C 423.786,307.049 422.286,308.215 420.5,309C 413.724,309.92 407.057,309.586 400.5,308C 394.133,299.341 395.799,292.841 405.5,288.5 Z"/>
  </g>
  <g>
    <path style="opacity: 0.899; fill: rgb(255, 255, 255);" d="M -0.5,365.5 C -0.5,362.5 -0.5,359.5 -0.5,356.5C 4.91068,349.462 11.0773,348.795 18,354.5C 21.7536,367.746 16.9202,372.912 3.5,370C 1.92975,368.603 0.596413,367.103 -0.5,365.5 Z"/>
  </g>
  <g>
    <path style="opacity: 0.911; fill: rgb(255, 255, 255);" d="M 305.5,386.5 C 311.59,385.137 316.09,387.137 319,392.5C 319.667,398.5 319.667,404.5 319,410.5C 316.081,416.025 311.581,417.858 305.5,416C 303.376,414.878 301.543,413.378 300,411.5C 298,404.833 298,398.167 300,391.5C 301.73,389.598 303.563,387.931 305.5,386.5 Z"/>
  </g>
  <g>
    <path style="opacity: 0.879; fill: rgb(255, 255, 255);" d="M 441.5,424.5 C 455.087,424.846 458.754,431.013 452.5,443C 443.055,447.943 437.055,445.276 434.5,435C 435.074,430.271 437.407,426.771 441.5,424.5 Z"/>
  </g>
</svg>