<?xml version="1.0" standalone="no"?>
<!DOCTYPE svg PUBLIC "-//W3C//DTD SVG 20010904//EN"
 "http://www.w3.org/TR/2001/REC-SVG-20010904/DTD/svg10.dtd">
<svg version="1.0" xmlns="http://www.w3.org/2000/svg"
 width="512.000000pt" height="512.000000pt" viewBox="0 0 512.000000 512.000000"
 preserveAspectRatio="xMidYMid meet">
<metadata>
Created by potrace 1.16, written by Peter Selinger 2001-2019
</metadata>
<g transform="translate(0.000000,512.000000) scale(0.100000,-0.100000)"
fill="#000000" stroke="none">
<path d="M2210 4829 c-323 -33 -631 -141 -886 -310 -130 -87 -334 -285 -408
-398 -99 -150 -167 -310 -202 -481 -21 -98 -24 -278 -10 -580 8 -170 7 -203
-8 -260 -33 -128 -89 -223 -212 -364 -108 -124 -124 -150 -124 -206 0 -64 27
-101 132 -180 47 -36 97 -78 111 -95 65 -80 99 -194 122 -413 8 -81 20 -178
26 -217 30 -185 106 -269 268 -296 60 -10 107 -9 277 6 425 37 525 8 599 -172
29 -73 77 -251 105 -393 11 -58 26 -118 32 -133 23 -59 -5 -57 858 -57 849 0
833 -1 860 49 16 32 13 57 -39 261 -47 186 -101 469 -101 531 l0 29 -235 0
-235 0 0 205 0 205 -205 0 -205 0 0 205 0 205 -205 0 -205 0 0 205 0 205 205
0 205 0 0 205 0 205 205 0 205 0 0 205 0 205 205 0 205 0 0 210 0 210 -205 0
-205 0 0 203 0 202 -205 -3 -205 -3 0 206 0 205 205 0 205 0 0 149 0 150 -53
15 c-96 28 -220 55 -327 71 -131 19 -424 27 -550 14z m-280 -1014 l0 -205
-200 0 -200 0 0 205 0 205 200 0 200 0 0 -205z m820 -155 l0 -200 -200 0 -200
0 0 200 0 200 200 0 200 0 0 -200z m-310 -555 l0 -205 -200 0 -200 0 0 205 0
205 200 0 200 0 0 -205z m110 -1845 l0 -200 -200 0 -200 0 0 200 0 200 200 0
200 0 0 -200z"/>
<path d="M3230 4250 l0 -210 210 0 210 0 0 210 0 210 -210 0 -210 0 0 -210z"/>
<path d="M3750 3950 l0 -210 210 0 210 0 0 210 0 210 -210 0 -210 0 0 -210z"/>
<path d="M4340 3550 l0 -210 210 0 210 0 0 210 0 210 -210 0 -210 0 0 -210z"/>
<path d="M3770 3065 l0 -205 210 0 210 0 0 205 0 205 -210 0 -210 0 0 -205z"/>
<path d="M3280 2670 l0 -210 210 0 210 0 0 210 0 210 -210 0 -210 0 0 -210z"/>
<path d="M2840 2175 l0 -205 210 0 210 0 0 205 0 205 -210 0 -210 0 0 -205z"/>
<path d="M3740 2130 l0 -210 208 2 207 3 0 205 0 205 -207 3 -208 2 0 -210z"/>
<path d="M3340 1590 l0 -210 210 0 210 0 0 210 0 210 -210 0 -210 0 0 -210z"/>
<path d="M4030 1330 l0 -210 208 2 207 3 0 205 0 205 -207 3 -208 2 0 -210z"/>
</g>
</svg>
