<?xml version="1.0" standalone="no"?>
<!DOCTYPE svg PUBLIC "-//W3C//DTD SVG 20010904//EN"
 "http://www.w3.org/TR/2001/REC-SVG-20010904/DTD/svg10.dtd">
<svg version="1.0" xmlns="http://www.w3.org/2000/svg"
 width="512.000000pt" height="512.000000pt" viewBox="0 0 512.000000 512.000000"
 preserveAspectRatio="xMidYMid meet">
<metadata>
Created by potrace 1.16, written by Peter Selinger 2001-2019
</metadata>
<g transform="translate(0.000000,512.000000) scale(0.100000,-0.100000)"
fill="#000000" stroke="none">
<path d="M2658 4849 c-334 -19 -520 -82 -662 -224 -116 -115 -171 -230 -208
-435 -25 -137 -38 -583 -18 -630 28 -68 115 -111 191 -95 37 8 97 59 111 94 6
14 14 130 19 256 9 280 26 383 77 485 47 95 104 140 217 175 133 41 214 46
786 52 757 7 982 -8 1125 -78 151 -72 204 -198 224 -531 13 -214 13 -2502 0
-2716 -20 -333 -73 -459 -224 -531 -143 -70 -369 -85 -1126 -78 -570 6 -653
11 -785 52 -113 35 -170 80 -217 175 -51 102 -68 205 -77 485 -5 127 -13 242
-19 256 -14 35 -74 86 -111 94 -76 16 -163 -27 -191 -95 -20 -47 -7 -493 18
-630 37 -202 92 -319 202 -430 153 -152 327 -209 701 -230 232 -13 1007 -13
1239 0 362 21 544 81 690 229 152 153 209 323 230 687 13 220 13 2528 0 2748
-21 364 -78 535 -230 686 -152 153 -323 210 -692 230 -201 11 -1070 11 -1270
-1z"/>
<path d="M1080 3336 c-62 -43 -773 -660 -794 -689 -29 -40 -29 -134 0 -174 21
-29 732 -646 794 -689 47 -33 133 -34 180 -1 57 38 75 71 75 137 -1 44 -6 67
-21 87 -11 16 -114 109 -229 208 l-209 180 1195 5 c1130 5 1196 6 1222 23 91
59 91 215 0 274 -26 17 -92 18 -1222 23 l-1195 5 209 180 c115 99 218 192 229
208 15 20 20 43 21 87 0 66 -18 99 -75 138 -47 32 -133 31 -180 -2z"/>
</g>
</svg>
