<svg width="64" height="65" viewBox="0 0 64 65" fill="none" xmlns="http://www.w3.org/2000/svg">
<path d="M10 60.822C8.89543 60.822 8 59.9143 8 58.7946C8 57.6749 8.89543 56.7672 10 56.7672H14V52.7124C14 45.4539 18.1811 39.1893 24.2262 36.2511C25.3858 35.6875 26 34.7219 26 33.8609V31.0159C26 30.1549 25.3858 29.1893 24.2262 28.6257C18.1811 25.6875 14 19.4229 14 12.1644V8.10959H10C8.89543 8.10959 8 7.20189 8 6.08219C8 4.96249 8.89543 4.05479 10 4.05479L54 4.05488C55.1046 4.0549 56 4.96261 56 6.08231C56 7.20201 55.1045 8.10969 54 8.10968L50 8.10962V12.1644C50 19.4229 45.8189 25.6875 39.7738 28.6257C38.6142 29.1893 38 30.1549 38 31.0159V33.8609C38 34.7219 38.6142 35.6875 39.7738 36.2511C45.8189 39.1893 50 45.4539 50 52.7124V56.7672H54C55.1046 56.7672 56 57.6749 56 58.7946C56 59.9143 55.1046 60.822 54 60.822H10ZM18 8.10968V12.1645C18 14.3406 18.4831 16.4029 19.3471 18.2468H44.6529C45.5169 16.4029 46 14.3406 46 12.1645V8.10968H18ZM30 33.861C30 36.7003 28.0875 38.8712 25.9556 39.9074C21.2455 42.1967 18 47.0724 18 52.7125C18 52.7125 21.463 47.4469 30 46.7145V33.861ZM34 33.861V46.7145C42.537 47.4469 46 52.7125 46 52.7125C46 47.0724 42.7545 42.1967 38.0444 39.9074C35.9125 38.8712 34 36.7003 34 33.861Z" fill="black"/>
</svg>
