<?xml version="1.0" encoding="utf-8"?>
<svg xmlns="http://www.w3.org/2000/svg" version="1.1" width="512px" height="512px" style="shape-rendering:geometricPrecision; text-rendering:geometricPrecision; image-rendering:optimizeQuality; fill-rule:evenodd; clip-rule:evenodd">
  <g>
    <path style="opacity: 0.984; fill: rgb(255, 255, 255);" d="M 186.5,-0.5 C 200.5,-0.5 214.5,-0.5 228.5,-0.5C 312.101,11.5985 370.268,56.5985 403,134.5C 420.089,184.505 419.589,234.339 401.5,284C 416.565,301.177 419.565,320.344 410.5,341.5C 440.486,371.986 470.653,402.32 501,432.5C 505.606,439.045 509.106,446.045 511.5,453.5C 511.5,460.167 511.5,466.833 511.5,473.5C 505.833,493.167 493.167,505.833 473.5,511.5C 466.833,511.5 460.167,511.5 453.5,511.5C 446.045,509.106 439.045,505.606 432.5,501C 402.32,470.653 371.986,440.486 341.5,410.5C 320.367,419.63 301.201,416.63 284,401.5C 205.265,429.074 133.765,416.574 69.5,364C 29.6237,327.415 6.2904,282.248 -0.5,228.5C -0.5,214.5 -0.5,200.5 -0.5,186.5C 10.6002,107.236 52.2669,50.403 124.5,16C 144.541,7.6584 165.207,2.1584 186.5,-0.5 Z M 191.5,64.5 C 240.416,60.9651 281.582,76.9651 315,112.5C 348.34,152.542 358.34,197.875 345,248.5C 328.833,296.667 296.667,328.833 248.5,345C 190.604,359.655 141.104,345.489 100,302.5C 66.6598,262.458 56.6598,217.125 70,166.5C 90.6157,108.711 131.116,74.7106 191.5,64.5 Z"/>
  </g>
  <g>
    <path style="opacity: 0.96; fill: rgb(255, 255, 255);" d="M 193.5,95.5 C 200.175,95.3337 206.842,95.5004 213.5,96C 222.482,100.473 225.649,107.64 223,117.5C 221.167,122 218,125.167 213.5,127C 159.333,130.5 130.5,159.333 127,213.5C 122.527,222.482 115.36,225.649 105.5,223C 101,221.167 97.8333,218 96,213.5C 95.2476,161.484 118.414,124.65 165.5,103C 174.716,99.5318 184.049,97.0318 193.5,95.5 Z"/>
  </g>
</svg>