<?xml version="1.0" encoding="utf-8"?>
<svg xmlns="http://www.w3.org/2000/svg" version="1.1" width="512px" height="512px" style="shape-rendering:geometricPrecision; text-rendering:geometricPrecision; image-rendering:optimizeQuality; fill-rule:evenodd; clip-rule:evenodd">
  <rect x="74.072" y="64.624" width="360.833" height="363.961" style="stroke: rgb(0, 0, 0); fill: rgb(255, 255, 255);"/>
  <g>
    <path style="opacity:0.997" fill="#ff8817" d="M 156.5,11.5 C 222.501,11.3333 288.501,11.5 354.5,12C 416.354,17.1564 460.521,47.6564 487,103.5C 493.996,120.483 497.996,138.15 499,156.5C 499.667,222.5 499.667,288.5 499,354.5C 494.407,409.699 468.574,451.532 421.5,480C 400.324,491.628 377.657,497.961 353.5,499C 288.167,499.667 222.833,499.667 157.5,499C 101.776,494.879 59.6091,469.046 31,421.5C 19.6934,400.942 13.3601,378.942 12,355.5C 11.3333,288.833 11.3333,222.167 12,155.5C 17.4692,94.0635 47.9692,50.2302 103.5,24C 120.669,17.1224 138.336,12.9558 156.5,11.5 Z M 259.5,133.5 C 267.787,133.317 275.12,135.817 281.5,141C 313,172.5 344.5,204 376,235.5C 384.386,247.532 385.053,259.866 378,272.5C 344.833,305.667 311.667,338.833 278.5,372C 265.524,378.895 253.358,377.729 242,368.5C 235.133,360.582 232.799,351.582 235,341.5C 236.556,336.72 238.889,332.387 242,328.5C 257.318,314.348 272.152,299.682 286.5,284.5C 241.17,283.667 195.837,283.167 150.5,283C 131.009,275.85 124.509,262.35 131,242.5C 134.958,235.433 140.791,230.6 148.5,228C 194.468,226.697 240.468,226.03 286.5,226C 270.667,210.167 254.833,194.333 239,178.5C 230.243,161.456 233.743,147.622 249.5,137C 252.85,135.514 256.184,134.347 259.5,133.5 Z"/>
  </g>
</svg>