<svg width="19" height="20" viewBox="0 0 19 20" fill="none" xmlns="http://www.w3.org/2000/svg">
<g clip-path="url(#clip0_92_125)">
<path d="M-0.92772 -1.17847C-0.33753 -1.82934 0.619355 -1.82934 1.20954 -1.17847L9.20855 7.64302L17.2076 -1.17847C17.7978 -1.82934 18.7546 -1.82934 19.3448 -1.17847C19.935 -0.527597 19.935 0.527678 19.3448 1.17855L11.3458 10L19.3448 18.8215C19.935 19.4724 19.935 20.5277 19.3448 21.1786C18.7546 21.8294 17.7978 21.8294 17.2076 21.1786L9.20855 12.3571L1.20954 21.1786C0.619355 21.8294 -0.33753 21.8294 -0.92772 21.1786C-1.51791 20.5277 -1.51791 19.4724 -0.92772 18.8215L7.07129 10L-0.92772 1.17855C-1.51791 0.527678 -1.51791 -0.527597 -0.92772 -1.17847Z" fill="white"/>
</g>
<defs>
<clipPath id="clip0_92_125">
<rect x="0.140869" width="18.1353" height="20" rx="9.06764" fill="white"/>
</clipPath>
</defs>
</svg>
